<svg width="488" height="188" viewBox="0 0 488 188" fill="none" xmlns="http://www.w3.org/2000/svg">
<g opacity="0.5">
<path d="M6.5625 3.28125C6.5625 7.65625 0 7.65625 0 3.28125C0 -1.09375 6.5625 -1.09375 6.5625 3.28125Z" fill="black"/>
<path d="M17.4922 3.28125C17.4922 7.65625 10.9297 7.65625 10.9297 3.28125C10.9297 -1.09375 17.4922 -1.09375 17.4922 3.28125Z" fill="black"/>
<path d="M28.4316 3.28125C28.4316 7.65625 21.8691 7.65625 21.8691 3.28125C21.8691 -1.09375 28.4316 -1.09375 28.4316 3.28125Z" fill="black"/>
<path d="M39.373 3.28125C39.373 7.65625 32.8105 7.65625 32.8105 3.28125C32.8105 -1.09375 39.373 -1.09375 39.373 3.28125Z" fill="black"/>
<path d="M50.3125 3.28125C50.3125 7.65625 43.75 7.65625 43.75 3.28125C43.75 -1.09375 50.3125 -1.09375 50.3125 3.28125Z" fill="black"/>
<path d="M61.2422 3.28125C61.2422 7.65625 54.6797 7.65625 54.6797 3.28125C54.6797 -1.09375 61.2422 -1.09375 61.2422 3.28125Z" fill="black"/>
<path d="M72.1816 3.28125C72.1816 7.65625 65.6191 7.65625 65.6191 3.28125C65.6191 -1.09375 72.1816 -1.09375 72.1816 3.28125Z" fill="black"/>
<path d="M83.123 3.28125C83.123 7.65625 76.5605 7.65625 76.5605 3.28125C76.5605 -1.09375 83.123 -1.09375 83.123 3.28125Z" fill="black"/>
<path d="M94.0625 3.28125C94.0625 7.65625 87.5 7.65625 87.5 3.28125C87.5 -1.09375 94.0625 -1.09375 94.0625 3.28125Z" fill="black"/>
<path d="M104.992 3.28125C104.992 7.65625 98.4297 7.65625 98.4297 3.28125C98.4297 -1.09375 104.992 -1.09375 104.992 3.28125Z" fill="black"/>
<path d="M115.932 3.28125C115.932 7.65625 109.369 7.65625 109.369 3.28125C109.369 -1.09375 115.932 -1.09375 115.932 3.28125Z" fill="black"/>
<path d="M126.873 3.28125C126.873 7.65625 120.311 7.65625 120.311 3.28125C120.311 -1.09375 126.873 -1.09375 126.873 3.28125Z" fill="black"/>
<path d="M137.812 3.28125C137.812 7.65625 131.25 7.65625 131.25 3.28125C131.25 -1.09375 137.812 -1.09375 137.812 3.28125Z" fill="black"/>
<path d="M148.742 3.28125C148.742 7.65625 142.18 7.65625 142.18 3.28125C142.18 -1.09375 148.742 -1.09375 148.742 3.28125Z" fill="black"/>
<path d="M159.682 3.28125C159.682 7.65625 153.119 7.65625 153.119 3.28125C153.119 -1.09375 159.682 -1.09375 159.682 3.28125Z" fill="black"/>
<path d="M170.623 3.28125C170.623 7.65625 164.061 7.65625 164.061 3.28125C164.061 -1.09375 170.623 -1.09375 170.623 3.28125Z" fill="black"/>
<path d="M181.562 3.28125C181.562 7.65625 175 7.65625 175 3.28125C175 -1.09375 181.562 -1.09375 181.562 3.28125Z" fill="black"/>
<path d="M192.492 3.28125C192.492 7.65625 185.93 7.65625 185.93 3.28125C185.93 -1.09375 192.492 -1.09375 192.492 3.28125Z" fill="black"/>
<path d="M203.432 3.28125C203.432 7.65625 196.869 7.65625 196.869 3.28125C196.869 -1.09375 203.432 -1.09375 203.432 3.28125Z" fill="black"/>
<path d="M214.373 3.28125C214.373 7.65625 207.811 7.65625 207.811 3.28125C207.811 -1.09375 214.373 -1.09375 214.373 3.28125Z" fill="black"/>
<path d="M225.312 3.28125C225.312 7.65625 218.75 7.65625 218.75 3.28125C218.75 -1.09375 225.312 -1.09375 225.312 3.28125Z" fill="black"/>
<path d="M236.242 3.28125C236.242 7.65625 229.68 7.65625 229.68 3.28125C229.68 -1.09375 236.242 -1.09375 236.242 3.28125Z" fill="black"/>
<path d="M247.182 3.28125C247.182 7.65625 240.619 7.65625 240.619 3.28125C240.619 -1.09375 247.182 -1.09375 247.182 3.28125Z" fill="black"/>
<path d="M258.123 3.28125C258.123 7.65625 251.561 7.65625 251.561 3.28125C251.561 -1.09375 258.123 -1.09375 258.123 3.28125Z" fill="black"/>
<path d="M269.062 3.28125C269.062 7.65625 262.5 7.65625 262.5 3.28125C262.5 -1.09375 269.062 -1.09375 269.062 3.28125Z" fill="black"/>
<path d="M279.992 3.28125C279.992 7.65625 273.43 7.65625 273.43 3.28125C273.43 -1.09375 279.992 -1.09375 279.992 3.28125Z" fill="black"/>
<path d="M290.932 3.28125C290.932 7.65625 284.369 7.65625 284.369 3.28125C284.369 -1.09375 290.932 -1.09375 290.932 3.28125Z" fill="black"/>
<path d="M301.873 3.28125C301.873 7.65625 295.311 7.65625 295.311 3.28125C295.311 -1.09375 301.873 -1.09375 301.873 3.28125Z" fill="black"/>
<path d="M312.812 3.28125C312.812 7.65625 306.25 7.65625 306.25 3.28125C306.25 -1.09375 312.812 -1.09375 312.812 3.28125Z" fill="black"/>
<path d="M323.742 3.28125C323.742 7.65625 317.18 7.65625 317.18 3.28125C317.18 -1.09375 323.742 -1.09375 323.742 3.28125Z" fill="black"/>
<path d="M334.682 3.28125C334.682 7.65625 328.119 7.65625 328.119 3.28125C328.119 -1.09375 334.682 -1.09375 334.682 3.28125Z" fill="black"/>
<path d="M345.623 3.28125C345.623 7.65625 339.061 7.65625 339.061 3.28125C339.061 -1.09375 345.623 -1.09375 345.623 3.28125Z" fill="black"/>
<path d="M356.562 3.28125C356.562 7.65625 350 7.65625 350 3.28125C350 -1.09375 356.562 -1.09375 356.562 3.28125Z" fill="black"/>
<path d="M367.492 3.28125C367.492 7.65625 360.93 7.65625 360.93 3.28125C360.93 -1.09375 367.492 -1.09375 367.492 3.28125Z" fill="black"/>
<path d="M378.432 3.28125C378.432 7.65625 371.869 7.65625 371.869 3.28125C371.869 -1.09375 378.432 -1.09375 378.432 3.28125Z" fill="black"/>
<path d="M389.373 3.28125C389.373 7.65625 382.811 7.65625 382.811 3.28125C382.811 -1.09375 389.373 -1.09375 389.373 3.28125Z" fill="black"/>
<path d="M400.312 3.28125C400.312 7.65625 393.75 7.65625 393.75 3.28125C393.75 -1.09375 400.312 -1.09375 400.312 3.28125Z" fill="black"/>
<path d="M411.242 3.28125C411.242 7.65625 404.68 7.65625 404.68 3.28125C404.68 -1.09375 411.242 -1.09375 411.242 3.28125Z" fill="black"/>
<path d="M422.182 3.28125C422.182 7.65625 415.619 7.65625 415.619 3.28125C415.619 -1.09375 422.182 -1.09375 422.182 3.28125Z" fill="black"/>
<path d="M433.123 3.28125C433.123 7.65625 426.561 7.65625 426.561 3.28125C426.561 -1.09375 433.123 -1.09375 433.123 3.28125Z" fill="black"/>
<path d="M444.062 3.28125C444.062 7.65625 437.5 7.65625 437.5 3.28125C437.5 -1.09375 444.062 -1.09375 444.062 3.28125Z" fill="black"/>
<path d="M454.992 3.28125C454.992 7.65625 448.43 7.65625 448.43 3.28125C448.43 -1.09375 454.992 -1.09375 454.992 3.28125Z" fill="black"/>
<path d="M465.932 3.28125C465.932 7.65625 459.369 7.65625 459.369 3.28125C459.369 -1.09375 465.932 -1.09375 465.932 3.28125Z" fill="black"/>
<path d="M476.873 3.28125C476.873 7.65625 470.311 7.65625 470.311 3.28125C470.311 -1.09375 476.873 -1.09375 476.873 3.28125Z" fill="black"/>
<path d="M487.812 3.28125C487.812 7.65625 481.25 7.65625 481.25 3.28125C481.25 -1.09375 487.812 -1.09375 487.812 3.28125Z" fill="black"/>
<path d="M6.5625 15.3113C6.5625 19.6863 0 19.6863 0 15.3113C0 10.9363 6.5625 10.9363 6.5625 15.3113Z" fill="black"/>
<path d="M17.4922 15.3113C17.4922 19.6863 10.9297 19.6863 10.9297 15.3113C10.9297 10.9363 17.4922 10.9363 17.4922 15.3113Z" fill="black"/>
<path d="M28.4316 15.3113C28.4316 19.6863 21.8691 19.6863 21.8691 15.3113C21.8691 10.9363 28.4316 10.9363 28.4316 15.3113Z" fill="black"/>
<path d="M39.373 15.3113C39.373 19.6863 32.8105 19.6863 32.8105 15.3113C32.8105 10.9363 39.373 10.9363 39.373 15.3113Z" fill="black"/>
<path d="M50.3125 15.3113C50.3125 19.6863 43.75 19.6863 43.75 15.3113C43.75 10.9363 50.3125 10.9363 50.3125 15.3113Z" fill="black"/>
<path d="M61.2422 15.3113C61.2422 19.6863 54.6797 19.6863 54.6797 15.3113C54.6797 10.9363 61.2422 10.9363 61.2422 15.3113Z" fill="black"/>
<path d="M72.1816 15.3113C72.1816 19.6863 65.6191 19.6863 65.6191 15.3113C65.6191 10.9363 72.1816 10.9363 72.1816 15.3113Z" fill="black"/>
<path d="M83.123 15.3113C83.123 19.6863 76.5605 19.6863 76.5605 15.3113C76.5605 10.9363 83.123 10.9363 83.123 15.3113Z" fill="black"/>
<path d="M94.0625 15.3113C94.0625 19.6863 87.5 19.6863 87.5 15.3113C87.5 10.9363 94.0625 10.9363 94.0625 15.3113Z" fill="black"/>
<path d="M104.992 15.3113C104.992 19.6863 98.4297 19.6863 98.4297 15.3113C98.4297 10.9363 104.992 10.9363 104.992 15.3113Z" fill="black"/>
<path d="M115.932 15.3113C115.932 19.6863 109.369 19.6863 109.369 15.3113C109.369 10.9363 115.932 10.9363 115.932 15.3113Z" fill="black"/>
<path d="M126.873 15.3113C126.873 19.6863 120.311 19.6863 120.311 15.3113C120.311 10.9363 126.873 10.9363 126.873 15.3113Z" fill="black"/>
<path d="M137.812 15.3113C137.812 19.6863 131.25 19.6863 131.25 15.3113C131.25 10.9363 137.812 10.9363 137.812 15.3113Z" fill="black"/>
<path d="M148.742 15.3113C148.742 19.6863 142.18 19.6863 142.18 15.3113C142.18 10.9363 148.742 10.9363 148.742 15.3113Z" fill="black"/>
<path d="M159.682 15.3113C159.682 19.6863 153.119 19.6863 153.119 15.3113C153.119 10.9363 159.682 10.9363 159.682 15.3113Z" fill="black"/>
<path d="M170.623 15.3113C170.623 19.6863 164.061 19.6863 164.061 15.3113C164.061 10.9363 170.623 10.9363 170.623 15.3113Z" fill="black"/>
<path d="M181.562 15.3113C181.562 19.6863 175 19.6863 175 15.3113C175 10.9363 181.562 10.9363 181.562 15.3113Z" fill="black"/>
<path d="M192.492 15.3113C192.492 19.6863 185.93 19.6863 185.93 15.3113C185.93 10.9363 192.492 10.9363 192.492 15.3113Z" fill="black"/>
<path d="M203.432 15.3113C203.432 19.6863 196.869 19.6863 196.869 15.3113C196.869 10.9363 203.432 10.9363 203.432 15.3113Z" fill="black"/>
<path d="M214.373 15.3113C214.373 19.6863 207.811 19.6863 207.811 15.3113C207.811 10.9363 214.373 10.9363 214.373 15.3113Z" fill="black"/>
<path d="M225.312 15.3113C225.312 19.6863 218.75 19.6863 218.75 15.3113C218.75 10.9363 225.312 10.9363 225.312 15.3113Z" fill="black"/>
<path d="M236.242 15.3113C236.242 19.6863 229.68 19.6863 229.68 15.3113C229.68 10.9363 236.242 10.9363 236.242 15.3113Z" fill="black"/>
<path d="M247.182 15.3113C247.182 19.6863 240.619 19.6863 240.619 15.3113C240.619 10.9363 247.182 10.9363 247.182 15.3113Z" fill="black"/>
<path d="M258.123 15.3113C258.123 19.6863 251.561 19.6863 251.561 15.3113C251.561 10.9363 258.123 10.9363 258.123 15.3113Z" fill="black"/>
<path d="M269.062 15.3113C269.062 19.6863 262.5 19.6863 262.5 15.3113C262.5 10.9363 269.062 10.9363 269.062 15.3113Z" fill="black"/>
<path d="M279.992 15.3113C279.992 19.6863 273.43 19.6863 273.43 15.3113C273.43 10.9363 279.992 10.9363 279.992 15.3113Z" fill="black"/>
<path d="M290.932 15.3113C290.932 19.6863 284.369 19.6863 284.369 15.3113C284.369 10.9363 290.932 10.9363 290.932 15.3113Z" fill="black"/>
<path d="M301.873 15.3113C301.873 19.6863 295.311 19.6863 295.311 15.3113C295.311 10.9363 301.873 10.9363 301.873 15.3113Z" fill="black"/>
<path d="M312.812 15.3113C312.812 19.6863 306.25 19.6863 306.25 15.3113C306.25 10.9363 312.812 10.9363 312.812 15.3113Z" fill="black"/>
<path d="M323.742 15.3113C323.742 19.6863 317.18 19.6863 317.18 15.3113C317.18 10.9363 323.742 10.9363 323.742 15.3113Z" fill="black"/>
<path d="M334.682 15.3113C334.682 19.6863 328.119 19.6863 328.119 15.3113C328.119 10.9363 334.682 10.9363 334.682 15.3113Z" fill="black"/>
<path d="M345.623 15.3113C345.623 19.6863 339.061 19.6863 339.061 15.3113C339.061 10.9363 345.623 10.9363 345.623 15.3113Z" fill="black"/>
<path d="M356.562 15.3113C356.562 19.6863 350 19.6863 350 15.3113C350 10.9363 356.562 10.9363 356.562 15.3113Z" fill="black"/>
<path d="M367.492 15.3113C367.492 19.6863 360.93 19.6863 360.93 15.3113C360.93 10.9363 367.492 10.9363 367.492 15.3113Z" fill="black"/>
<path d="M378.432 15.3113C378.432 19.6863 371.869 19.6863 371.869 15.3113C371.869 10.9363 378.432 10.9363 378.432 15.3113Z" fill="black"/>
<path d="M389.373 15.3113C389.373 19.6863 382.811 19.6863 382.811 15.3113C382.811 10.9363 389.373 10.9363 389.373 15.3113Z" fill="black"/>
<path d="M400.312 15.3113C400.312 19.6863 393.75 19.6863 393.75 15.3113C393.75 10.9363 400.312 10.9363 400.312 15.3113Z" fill="black"/>
<path d="M411.242 15.3113C411.242 19.6863 404.68 19.6863 404.68 15.3113C404.68 10.9363 411.242 10.9363 411.242 15.3113Z" fill="black"/>
<path d="M422.182 15.3113C422.182 19.6863 415.619 19.6863 415.619 15.3113C415.619 10.9363 422.182 10.9363 422.182 15.3113Z" fill="black"/>
<path d="M433.123 15.3113C433.123 19.6863 426.561 19.6863 426.561 15.3113C426.561 10.9363 433.123 10.9363 433.123 15.3113Z" fill="black"/>
<path d="M444.062 15.3113C444.062 19.6863 437.5 19.6863 437.5 15.3113C437.5 10.9363 444.062 10.9363 444.062 15.3113Z" fill="black"/>
<path d="M454.992 15.3113C454.992 19.6863 448.43 19.6863 448.43 15.3113C448.43 10.9363 454.992 10.9363 454.992 15.3113Z" fill="black"/>
<path d="M465.932 15.3113C465.932 19.6863 459.369 19.6863 459.369 15.3113C459.369 10.9363 465.932 10.9363 465.932 15.3113Z" fill="black"/>
<path d="M476.873 15.3113C476.873 19.6863 470.311 19.6863 470.311 15.3113C470.311 10.9363 476.873 10.9363 476.873 15.3113Z" fill="black"/>
<path d="M487.812 15.3113C487.812 19.6863 481.25 19.6863 481.25 15.3113C481.25 10.9363 487.812 10.9363 487.812 15.3113Z" fill="black"/>
<path d="M6.5625 27.3412C6.5625 31.7162 0 31.7162 0 27.3412C0 22.9662 6.5625 22.9662 6.5625 27.3412Z" fill="black"/>
<path d="M17.4922 27.3412C17.4922 31.7162 10.9297 31.7162 10.9297 27.3412C10.9297 22.9662 17.4922 22.9662 17.4922 27.3412Z" fill="black"/>
<path d="M28.4316 27.3412C28.4316 31.7162 21.8691 31.7162 21.8691 27.3412C21.8691 22.9662 28.4316 22.9662 28.4316 27.3412Z" fill="black"/>
<path d="M39.373 27.3412C39.373 31.7162 32.8105 31.7162 32.8105 27.3412C32.8105 22.9662 39.373 22.9662 39.373 27.3412Z" fill="black"/>
<path d="M50.3125 27.3412C50.3125 31.7162 43.75 31.7162 43.75 27.3412C43.75 22.9662 50.3125 22.9662 50.3125 27.3412Z" fill="black"/>
<path d="M61.2422 27.3412C61.2422 31.7162 54.6797 31.7162 54.6797 27.3412C54.6797 22.9662 61.2422 22.9662 61.2422 27.3412Z" fill="black"/>
<path d="M72.1816 27.3412C72.1816 31.7162 65.6191 31.7162 65.6191 27.3412C65.6191 22.9662 72.1816 22.9662 72.1816 27.3412Z" fill="black"/>
<path d="M83.123 27.3412C83.123 31.7162 76.5605 31.7162 76.5605 27.3412C76.5605 22.9662 83.123 22.9662 83.123 27.3412Z" fill="black"/>
<path d="M94.0625 27.3412C94.0625 31.7162 87.5 31.7162 87.5 27.3412C87.5 22.9662 94.0625 22.9662 94.0625 27.3412Z" fill="black"/>
<path d="M104.992 27.3412C104.992 31.7162 98.4297 31.7162 98.4297 27.3412C98.4297 22.9662 104.992 22.9662 104.992 27.3412Z" fill="black"/>
<path d="M115.932 27.3412C115.932 31.7162 109.369 31.7162 109.369 27.3412C109.369 22.9662 115.932 22.9662 115.932 27.3412Z" fill="black"/>
<path d="M126.873 27.3412C126.873 31.7162 120.311 31.7162 120.311 27.3412C120.311 22.9662 126.873 22.9662 126.873 27.3412Z" fill="black"/>
<path d="M137.812 27.3412C137.812 31.7162 131.25 31.7162 131.25 27.3412C131.25 22.9662 137.812 22.9662 137.812 27.3412Z" fill="black"/>
<path d="M148.742 27.3412C148.742 31.7162 142.18 31.7162 142.18 27.3412C142.18 22.9662 148.742 22.9662 148.742 27.3412Z" fill="black"/>
<path d="M159.682 27.3412C159.682 31.7162 153.119 31.7162 153.119 27.3412C153.119 22.9662 159.682 22.9662 159.682 27.3412Z" fill="black"/>
<path d="M170.623 27.3412C170.623 31.7162 164.061 31.7162 164.061 27.3412C164.061 22.9662 170.623 22.9662 170.623 27.3412Z" fill="black"/>
<path d="M181.562 27.3412C181.562 31.7162 175 31.7162 175 27.3412C175 22.9662 181.562 22.9662 181.562 27.3412Z" fill="black"/>
<path d="M192.492 27.3412C192.492 31.7162 185.93 31.7162 185.93 27.3412C185.93 22.9662 192.492 22.9662 192.492 27.3412Z" fill="black"/>
<path d="M203.432 27.3412C203.432 31.7162 196.869 31.7162 196.869 27.3412C196.869 22.9662 203.432 22.9662 203.432 27.3412Z" fill="black"/>
<path d="M214.373 27.3412C214.373 31.7162 207.811 31.7162 207.811 27.3412C207.811 22.9662 214.373 22.9662 214.373 27.3412Z" fill="black"/>
<path d="M225.312 27.3412C225.312 31.7162 218.75 31.7162 218.75 27.3412C218.75 22.9662 225.312 22.9662 225.312 27.3412Z" fill="black"/>
<path d="M236.242 27.3412C236.242 31.7162 229.68 31.7162 229.68 27.3412C229.68 22.9662 236.242 22.9662 236.242 27.3412Z" fill="black"/>
<path d="M247.182 27.3412C247.182 31.7162 240.619 31.7162 240.619 27.3412C240.619 22.9662 247.182 22.9662 247.182 27.3412Z" fill="black"/>
<path d="M258.123 27.3412C258.123 31.7162 251.561 31.7162 251.561 27.3412C251.561 22.9662 258.123 22.9662 258.123 27.3412Z" fill="black"/>
<path d="M269.062 27.3412C269.062 31.7162 262.5 31.7162 262.5 27.3412C262.5 22.9662 269.062 22.9662 269.062 27.3412Z" fill="black"/>
<path d="M279.992 27.3412C279.992 31.7162 273.43 31.7162 273.43 27.3412C273.43 22.9662 279.992 22.9662 279.992 27.3412Z" fill="black"/>
<path d="M290.932 27.3412C290.932 31.7162 284.369 31.7162 284.369 27.3412C284.369 22.9662 290.932 22.9662 290.932 27.3412Z" fill="black"/>
<path d="M301.873 27.3412C301.873 31.7162 295.311 31.7162 295.311 27.3412C295.311 22.9662 301.873 22.9662 301.873 27.3412Z" fill="black"/>
<path d="M312.812 27.3412C312.812 31.7162 306.25 31.7162 306.25 27.3412C306.25 22.9662 312.812 22.9662 312.812 27.3412Z" fill="black"/>
<path d="M323.742 27.3412C323.742 31.7162 317.18 31.7162 317.18 27.3412C317.18 22.9662 323.742 22.9662 323.742 27.3412Z" fill="black"/>
<path d="M334.682 27.3412C334.682 31.7162 328.119 31.7162 328.119 27.3412C328.119 22.9662 334.682 22.9662 334.682 27.3412Z" fill="black"/>
<path d="M345.623 27.3412C345.623 31.7162 339.061 31.7162 339.061 27.3412C339.061 22.9662 345.623 22.9662 345.623 27.3412Z" fill="black"/>
<path d="M356.562 27.3412C356.562 31.7162 350 31.7162 350 27.3412C350 22.9662 356.562 22.9662 356.562 27.3412Z" fill="black"/>
<path d="M367.492 27.3412C367.492 31.7162 360.93 31.7162 360.93 27.3412C360.93 22.9662 367.492 22.9662 367.492 27.3412Z" fill="black"/>
<path d="M378.432 27.3412C378.432 31.7162 371.869 31.7162 371.869 27.3412C371.869 22.9662 378.432 22.9662 378.432 27.3412Z" fill="black"/>
<path d="M389.373 27.3412C389.373 31.7162 382.811 31.7162 382.811 27.3412C382.811 22.9662 389.373 22.9662 389.373 27.3412Z" fill="black"/>
<path d="M400.312 27.3412C400.312 31.7162 393.75 31.7162 393.75 27.3412C393.75 22.9662 400.312 22.9662 400.312 27.3412Z" fill="black"/>
<path d="M411.242 27.3412C411.242 31.7162 404.68 31.7162 404.68 27.3412C404.68 22.9662 411.242 22.9662 411.242 27.3412Z" fill="black"/>
<path d="M422.182 27.3412C422.182 31.7162 415.619 31.7162 415.619 27.3412C415.619 22.9662 422.182 22.9662 422.182 27.3412Z" fill="black"/>
<path d="M433.123 27.3412C433.123 31.7162 426.561 31.7162 426.561 27.3412C426.561 22.9662 433.123 22.9662 433.123 27.3412Z" fill="black"/>
<path d="M444.062 27.3412C444.062 31.7162 437.5 31.7162 437.5 27.3412C437.5 22.9662 444.062 22.9662 444.062 27.3412Z" fill="black"/>
<path d="M454.992 27.3412C454.992 31.7162 448.43 31.7162 448.43 27.3412C448.43 22.9662 454.992 22.9662 454.992 27.3412Z" fill="black"/>
<path d="M465.932 27.3412C465.932 31.7162 459.369 31.7162 459.369 27.3412C459.369 22.9662 465.932 22.9662 465.932 27.3412Z" fill="black"/>
<path d="M476.873 27.3412C476.873 31.7162 470.311 31.7162 470.311 27.3412C470.311 22.9662 476.873 22.9662 476.873 27.3412Z" fill="black"/>
<path d="M487.812 27.3412C487.812 31.7162 481.25 31.7162 481.25 27.3412C481.25 22.9662 487.812 22.9662 487.812 27.3412Z" fill="black"/>
<path d="M6.5625 39.3712C6.5625 43.7462 0 43.7462 0 39.3712C0 34.9962 6.5625 34.9962 6.5625 39.3712Z" fill="black"/>
<path d="M17.4922 39.3712C17.4922 43.7462 10.9297 43.7462 10.9297 39.3712C10.9297 34.9962 17.4922 34.9962 17.4922 39.3712Z" fill="black"/>
<path d="M28.4316 39.3712C28.4316 43.7462 21.8691 43.7462 21.8691 39.3712C21.8691 34.9962 28.4316 34.9962 28.4316 39.3712Z" fill="black"/>
<path d="M39.373 39.3712C39.373 43.7462 32.8105 43.7462 32.8105 39.3712C32.8105 34.9962 39.373 34.9962 39.373 39.3712Z" fill="black"/>
<path d="M50.3125 39.3712C50.3125 43.7462 43.75 43.7462 43.75 39.3712C43.75 34.9962 50.3125 34.9962 50.3125 39.3712Z" fill="black"/>
<path d="M61.2422 39.3712C61.2422 43.7462 54.6797 43.7462 54.6797 39.3712C54.6797 34.9962 61.2422 34.9962 61.2422 39.3712Z" fill="black"/>
<path d="M72.1816 39.3712C72.1816 43.7462 65.6191 43.7462 65.6191 39.3712C65.6191 34.9962 72.1816 34.9962 72.1816 39.3712Z" fill="black"/>
<path d="M83.123 39.3712C83.123 43.7462 76.5605 43.7462 76.5605 39.3712C76.5605 34.9962 83.123 34.9962 83.123 39.3712Z" fill="black"/>
<path d="M94.0625 39.3712C94.0625 43.7462 87.5 43.7462 87.5 39.3712C87.5 34.9962 94.0625 34.9962 94.0625 39.3712Z" fill="black"/>
<path d="M104.992 39.3712C104.992 43.7462 98.4297 43.7462 98.4297 39.3712C98.4297 34.9962 104.992 34.9962 104.992 39.3712Z" fill="black"/>
<path d="M115.932 39.3712C115.932 43.7462 109.369 43.7462 109.369 39.3712C109.369 34.9962 115.932 34.9962 115.932 39.3712Z" fill="black"/>
<path d="M126.873 39.3712C126.873 43.7462 120.311 43.7462 120.311 39.3712C120.311 34.9962 126.873 34.9962 126.873 39.3712Z" fill="black"/>
<path d="M137.812 39.3712C137.812 43.7462 131.25 43.7462 131.25 39.3712C131.25 34.9962 137.812 34.9962 137.812 39.3712Z" fill="black"/>
<path d="M148.742 39.3712C148.742 43.7462 142.18 43.7462 142.18 39.3712C142.18 34.9962 148.742 34.9962 148.742 39.3712Z" fill="black"/>
<path d="M159.682 39.3712C159.682 43.7462 153.119 43.7462 153.119 39.3712C153.119 34.9962 159.682 34.9962 159.682 39.3712Z" fill="black"/>
<path d="M170.623 39.3712C170.623 43.7462 164.061 43.7462 164.061 39.3712C164.061 34.9962 170.623 34.9962 170.623 39.3712Z" fill="black"/>
<path d="M181.562 39.3712C181.562 43.7462 175 43.7462 175 39.3712C175 34.9962 181.562 34.9962 181.562 39.3712Z" fill="black"/>
<path d="M192.492 39.3712C192.492 43.7462 185.93 43.7462 185.93 39.3712C185.93 34.9962 192.492 34.9962 192.492 39.3712Z" fill="black"/>
<path d="M203.432 39.3712C203.432 43.7462 196.869 43.7462 196.869 39.3712C196.869 34.9962 203.432 34.9962 203.432 39.3712Z" fill="black"/>
<path d="M214.373 39.3712C214.373 43.7462 207.811 43.7462 207.811 39.3712C207.811 34.9962 214.373 34.9962 214.373 39.3712Z" fill="black"/>
<path d="M225.312 39.3712C225.312 43.7462 218.75 43.7462 218.75 39.3712C218.75 34.9962 225.312 34.9962 225.312 39.3712Z" fill="black"/>
<path d="M236.242 39.3712C236.242 43.7462 229.68 43.7462 229.68 39.3712C229.68 34.9962 236.242 34.9962 236.242 39.3712Z" fill="black"/>
<path d="M247.182 39.3712C247.182 43.7462 240.619 43.7462 240.619 39.3712C240.619 34.9962 247.182 34.9962 247.182 39.3712Z" fill="black"/>
<path d="M258.123 39.3712C258.123 43.7462 251.561 43.7462 251.561 39.3712C251.561 34.9962 258.123 34.9962 258.123 39.3712Z" fill="black"/>
<path d="M269.062 39.3712C269.062 43.7462 262.5 43.7462 262.5 39.3712C262.5 34.9962 269.062 34.9962 269.062 39.3712Z" fill="black"/>
<path d="M279.992 39.3712C279.992 43.7462 273.43 43.7462 273.43 39.3712C273.43 34.9962 279.992 34.9962 279.992 39.3712Z" fill="black"/>
<path d="M290.932 39.3712C290.932 43.7462 284.369 43.7462 284.369 39.3712C284.369 34.9962 290.932 34.9962 290.932 39.3712Z" fill="black"/>
<path d="M301.873 39.3712C301.873 43.7462 295.311 43.7462 295.311 39.3712C295.311 34.9962 301.873 34.9962 301.873 39.3712Z" fill="black"/>
<path d="M312.812 39.3712C312.812 43.7462 306.25 43.7462 306.25 39.3712C306.25 34.9962 312.812 34.9962 312.812 39.3712Z" fill="black"/>
<path d="M323.742 39.3712C323.742 43.7462 317.18 43.7462 317.18 39.3712C317.18 34.9962 323.742 34.9962 323.742 39.3712Z" fill="black"/>
<path d="M334.682 39.3712C334.682 43.7462 328.119 43.7462 328.119 39.3712C328.119 34.9962 334.682 34.9962 334.682 39.3712Z" fill="black"/>
<path d="M345.623 39.3712C345.623 43.7462 339.061 43.7462 339.061 39.3712C339.061 34.9962 345.623 34.9962 345.623 39.3712Z" fill="black"/>
<path d="M356.562 39.3712C356.562 43.7462 350 43.7462 350 39.3712C350 34.9962 356.562 34.9962 356.562 39.3712Z" fill="black"/>
<path d="M367.492 39.3712C367.492 43.7462 360.93 43.7462 360.93 39.3712C360.93 34.9962 367.492 34.9962 367.492 39.3712Z" fill="black"/>
<path d="M378.432 39.3712C378.432 43.7462 371.869 43.7462 371.869 39.3712C371.869 34.9962 378.432 34.9962 378.432 39.3712Z" fill="black"/>
<path d="M389.373 39.3712C389.373 43.7462 382.811 43.7462 382.811 39.3712C382.811 34.9962 389.373 34.9962 389.373 39.3712Z" fill="black"/>
<path d="M400.312 39.3712C400.312 43.7462 393.75 43.7462 393.75 39.3712C393.75 34.9962 400.312 34.9962 400.312 39.3712Z" fill="black"/>
<path d="M411.242 39.3712C411.242 43.7462 404.68 43.7462 404.68 39.3712C404.68 34.9962 411.242 34.9962 411.242 39.3712Z" fill="black"/>
<path d="M422.182 39.3712C422.182 43.7462 415.619 43.7462 415.619 39.3712C415.619 34.9962 422.182 34.9962 422.182 39.3712Z" fill="black"/>
<path d="M433.123 39.3712C433.123 43.7462 426.561 43.7462 426.561 39.3712C426.561 34.9962 433.123 34.9962 433.123 39.3712Z" fill="black"/>
<path d="M444.062 39.3712C444.062 43.7462 437.5 43.7462 437.5 39.3712C437.5 34.9962 444.062 34.9962 444.062 39.3712Z" fill="black"/>
<path d="M454.992 39.3712C454.992 43.7462 448.43 43.7462 448.43 39.3712C448.43 34.9962 454.992 34.9962 454.992 39.3712Z" fill="black"/>
<path d="M465.932 39.3712C465.932 43.7462 459.369 43.7462 459.369 39.3712C459.369 34.9962 465.932 34.9962 465.932 39.3712Z" fill="black"/>
<path d="M476.873 39.3712C476.873 43.7462 470.311 43.7462 470.311 39.3712C470.311 34.9962 476.873 34.9962 476.873 39.3712Z" fill="black"/>
<path d="M487.812 39.3712C487.812 43.7462 481.25 43.7462 481.25 39.3712C481.25 34.9962 487.812 34.9962 487.812 39.3712Z" fill="black"/>
<path d="M6.5625 51.4012C6.5625 55.7762 0 55.7762 0 51.4012C0 47.0262 6.5625 47.0262 6.5625 51.4012Z" fill="black"/>
<path d="M17.4922 51.4012C17.4922 55.7762 10.9297 55.7762 10.9297 51.4012C10.9297 47.0262 17.4922 47.0262 17.4922 51.4012Z" fill="black"/>
<path d="M28.4316 51.4012C28.4316 55.7762 21.8691 55.7762 21.8691 51.4012C21.8691 47.0262 28.4316 47.0262 28.4316 51.4012Z" fill="black"/>
<path d="M39.373 51.4012C39.373 55.7762 32.8105 55.7762 32.8105 51.4012C32.8105 47.0262 39.373 47.0262 39.373 51.4012Z" fill="black"/>
<path d="M50.3125 51.4012C50.3125 55.7762 43.75 55.7762 43.75 51.4012C43.75 47.0262 50.3125 47.0262 50.3125 51.4012Z" fill="black"/>
<path d="M61.2422 51.4012C61.2422 55.7762 54.6797 55.7762 54.6797 51.4012C54.6797 47.0262 61.2422 47.0262 61.2422 51.4012Z" fill="black"/>
<path d="M72.1816 51.4012C72.1816 55.7762 65.6191 55.7762 65.6191 51.4012C65.6191 47.0262 72.1816 47.0262 72.1816 51.4012Z" fill="black"/>
<path d="M83.123 51.4012C83.123 55.7762 76.5605 55.7762 76.5605 51.4012C76.5605 47.0262 83.123 47.0262 83.123 51.4012Z" fill="black"/>
<path d="M94.0625 51.4012C94.0625 55.7762 87.5 55.7762 87.5 51.4012C87.5 47.0262 94.0625 47.0262 94.0625 51.4012Z" fill="black"/>
<path d="M104.992 51.4012C104.992 55.7762 98.4297 55.7762 98.4297 51.4012C98.4297 47.0262 104.992 47.0262 104.992 51.4012Z" fill="black"/>
<path d="M115.932 51.4012C115.932 55.7762 109.369 55.7762 109.369 51.4012C109.369 47.0262 115.932 47.0262 115.932 51.4012Z" fill="black"/>
<path d="M126.873 51.4012C126.873 55.7762 120.311 55.7762 120.311 51.4012C120.311 47.0262 126.873 47.0262 126.873 51.4012Z" fill="black"/>
<path d="M137.812 51.4012C137.812 55.7762 131.25 55.7762 131.25 51.4012C131.25 47.0262 137.812 47.0262 137.812 51.4012Z" fill="black"/>
<path d="M148.742 51.4012C148.742 55.7762 142.18 55.7762 142.18 51.4012C142.18 47.0262 148.742 47.0262 148.742 51.4012Z" fill="black"/>
<path d="M159.682 51.4012C159.682 55.7762 153.119 55.7762 153.119 51.4012C153.119 47.0262 159.682 47.0262 159.682 51.4012Z" fill="black"/>
<path d="M170.623 51.4012C170.623 55.7762 164.061 55.7762 164.061 51.4012C164.061 47.0262 170.623 47.0262 170.623 51.4012Z" fill="black"/>
<path d="M181.562 51.4012C181.562 55.7762 175 55.7762 175 51.4012C175 47.0262 181.562 47.0262 181.562 51.4012Z" fill="black"/>
<path d="M192.492 51.4012C192.492 55.7762 185.93 55.7762 185.93 51.4012C185.93 47.0262 192.492 47.0262 192.492 51.4012Z" fill="black"/>
<path d="M203.432 51.4012C203.432 55.7762 196.869 55.7762 196.869 51.4012C196.869 47.0262 203.432 47.0262 203.432 51.4012Z" fill="black"/>
<path d="M214.373 51.4012C214.373 55.7762 207.811 55.7762 207.811 51.4012C207.811 47.0262 214.373 47.0262 214.373 51.4012Z" fill="black"/>
<path d="M225.312 51.4012C225.312 55.7762 218.75 55.7762 218.75 51.4012C218.75 47.0262 225.312 47.0262 225.312 51.4012Z" fill="black"/>
<path d="M236.242 51.4012C236.242 55.7762 229.68 55.7762 229.68 51.4012C229.68 47.0262 236.242 47.0262 236.242 51.4012Z" fill="black"/>
<path d="M247.182 51.4012C247.182 55.7762 240.619 55.7762 240.619 51.4012C240.619 47.0262 247.182 47.0262 247.182 51.4012Z" fill="black"/>
<path d="M258.123 51.4012C258.123 55.7762 251.561 55.7762 251.561 51.4012C251.561 47.0262 258.123 47.0262 258.123 51.4012Z" fill="black"/>
<path d="M269.062 51.4012C269.062 55.7762 262.5 55.7762 262.5 51.4012C262.5 47.0262 269.062 47.0262 269.062 51.4012Z" fill="black"/>
<path d="M279.992 51.4012C279.992 55.7762 273.43 55.7762 273.43 51.4012C273.43 47.0262 279.992 47.0262 279.992 51.4012Z" fill="black"/>
<path d="M290.932 51.4012C290.932 55.7762 284.369 55.7762 284.369 51.4012C284.369 47.0262 290.932 47.0262 290.932 51.4012Z" fill="black"/>
<path d="M301.873 51.4012C301.873 55.7762 295.311 55.7762 295.311 51.4012C295.311 47.0262 301.873 47.0262 301.873 51.4012Z" fill="black"/>
<path d="M312.812 51.4012C312.812 55.7762 306.25 55.7762 306.25 51.4012C306.25 47.0262 312.812 47.0262 312.812 51.4012Z" fill="black"/>
<path d="M323.742 51.4012C323.742 55.7762 317.18 55.7762 317.18 51.4012C317.18 47.0262 323.742 47.0262 323.742 51.4012Z" fill="black"/>
<path d="M334.682 51.4012C334.682 55.7762 328.119 55.7762 328.119 51.4012C328.119 47.0262 334.682 47.0262 334.682 51.4012Z" fill="black"/>
<path d="M345.623 51.4012C345.623 55.7762 339.061 55.7762 339.061 51.4012C339.061 47.0262 345.623 47.0262 345.623 51.4012Z" fill="black"/>
<path d="M356.562 51.4012C356.562 55.7762 350 55.7762 350 51.4012C350 47.0262 356.562 47.0262 356.562 51.4012Z" fill="black"/>
<path d="M367.492 51.4012C367.492 55.7762 360.93 55.7762 360.93 51.4012C360.93 47.0262 367.492 47.0262 367.492 51.4012Z" fill="black"/>
<path d="M378.432 51.4012C378.432 55.7762 371.869 55.7762 371.869 51.4012C371.869 47.0262 378.432 47.0262 378.432 51.4012Z" fill="black"/>
<path d="M389.373 51.4012C389.373 55.7762 382.811 55.7762 382.811 51.4012C382.811 47.0262 389.373 47.0262 389.373 51.4012Z" fill="black"/>
<path d="M400.312 51.4012C400.312 55.7762 393.75 55.7762 393.75 51.4012C393.75 47.0262 400.312 47.0262 400.312 51.4012Z" fill="black"/>
<path d="M411.242 51.4012C411.242 55.7762 404.68 55.7762 404.68 51.4012C404.68 47.0262 411.242 47.0262 411.242 51.4012Z" fill="black"/>
<path d="M422.182 51.4012C422.182 55.7762 415.619 55.7762 415.619 51.4012C415.619 47.0262 422.182 47.0262 422.182 51.4012Z" fill="black"/>
<path d="M433.123 51.4012C433.123 55.7762 426.561 55.7762 426.561 51.4012C426.561 47.0262 433.123 47.0262 433.123 51.4012Z" fill="black"/>
<path d="M444.062 51.4012C444.062 55.7762 437.5 55.7762 437.5 51.4012C437.5 47.0262 444.062 47.0262 444.062 51.4012Z" fill="black"/>
<path d="M454.992 51.4012C454.992 55.7762 448.43 55.7762 448.43 51.4012C448.43 47.0262 454.992 47.0262 454.992 51.4012Z" fill="black"/>
<path d="M465.932 51.4012C465.932 55.7762 459.369 55.7762 459.369 51.4012C459.369 47.0262 465.932 47.0262 465.932 51.4012Z" fill="black"/>
<path d="M476.873 51.4012C476.873 55.7762 470.311 55.7762 470.311 51.4012C470.311 47.0262 476.873 47.0262 476.873 51.4012Z" fill="black"/>
<path d="M487.812 51.4012C487.812 55.7762 481.25 55.7762 481.25 51.4012C481.25 47.0262 487.812 47.0262 487.812 51.4012Z" fill="black"/>
<path d="M6.5625 63.4313C6.5625 67.8063 0 67.8063 0 63.4313C0 59.0563 6.5625 59.0563 6.5625 63.4313Z" fill="black"/>
<path d="M17.4922 63.4313C17.4922 67.8063 10.9297 67.8063 10.9297 63.4313C10.9297 59.0563 17.4922 59.0563 17.4922 63.4313Z" fill="black"/>
<path d="M28.4316 63.4313C28.4316 67.8063 21.8691 67.8063 21.8691 63.4313C21.8691 59.0563 28.4316 59.0563 28.4316 63.4313Z" fill="black"/>
<path d="M39.373 63.4313C39.373 67.8063 32.8105 67.8063 32.8105 63.4313C32.8105 59.0563 39.373 59.0563 39.373 63.4313Z" fill="black"/>
<path d="M50.3125 63.4313C50.3125 67.8063 43.75 67.8063 43.75 63.4313C43.75 59.0563 50.3125 59.0563 50.3125 63.4313Z" fill="black"/>
<path d="M61.2422 63.4313C61.2422 67.8063 54.6797 67.8063 54.6797 63.4313C54.6797 59.0563 61.2422 59.0563 61.2422 63.4313Z" fill="black"/>
<path d="M72.1816 63.4313C72.1816 67.8063 65.6191 67.8063 65.6191 63.4313C65.6191 59.0563 72.1816 59.0563 72.1816 63.4313Z" fill="black"/>
<path d="M83.123 63.4313C83.123 67.8063 76.5605 67.8063 76.5605 63.4313C76.5605 59.0563 83.123 59.0563 83.123 63.4313Z" fill="black"/>
<path d="M94.0625 63.4313C94.0625 67.8063 87.5 67.8063 87.5 63.4313C87.5 59.0563 94.0625 59.0563 94.0625 63.4313Z" fill="black"/>
<path d="M104.992 63.4313C104.992 67.8063 98.4297 67.8063 98.4297 63.4313C98.4297 59.0563 104.992 59.0563 104.992 63.4313Z" fill="black"/>
<path d="M115.932 63.4313C115.932 67.8063 109.369 67.8063 109.369 63.4313C109.369 59.0563 115.932 59.0563 115.932 63.4313Z" fill="black"/>
<path d="M126.873 63.4313C126.873 67.8063 120.311 67.8063 120.311 63.4313C120.311 59.0563 126.873 59.0563 126.873 63.4313Z" fill="black"/>
<path d="M137.812 63.4313C137.812 67.8063 131.25 67.8063 131.25 63.4313C131.25 59.0563 137.812 59.0563 137.812 63.4313Z" fill="black"/>
<path d="M148.742 63.4313C148.742 67.8063 142.18 67.8063 142.18 63.4313C142.18 59.0563 148.742 59.0563 148.742 63.4313Z" fill="black"/>
<path d="M159.682 63.4313C159.682 67.8063 153.119 67.8063 153.119 63.4313C153.119 59.0563 159.682 59.0563 159.682 63.4313Z" fill="black"/>
<path d="M170.623 63.4313C170.623 67.8063 164.061 67.8063 164.061 63.4313C164.061 59.0563 170.623 59.0563 170.623 63.4313Z" fill="black"/>
<path d="M181.562 63.4313C181.562 67.8063 175 67.8063 175 63.4313C175 59.0563 181.562 59.0563 181.562 63.4313Z" fill="black"/>
<path d="M192.492 63.4313C192.492 67.8063 185.93 67.8063 185.93 63.4313C185.93 59.0563 192.492 59.0563 192.492 63.4313Z" fill="black"/>
<path d="M203.432 63.4313C203.432 67.8063 196.869 67.8063 196.869 63.4313C196.869 59.0563 203.432 59.0563 203.432 63.4313Z" fill="black"/>
<path d="M214.373 63.4313C214.373 67.8063 207.811 67.8063 207.811 63.4313C207.811 59.0563 214.373 59.0563 214.373 63.4313Z" fill="black"/>
<path d="M225.312 63.4313C225.312 67.8063 218.75 67.8063 218.75 63.4313C218.75 59.0563 225.312 59.0563 225.312 63.4313Z" fill="black"/>
<path d="M236.242 63.4313C236.242 67.8063 229.68 67.8063 229.68 63.4313C229.68 59.0563 236.242 59.0563 236.242 63.4313Z" fill="black"/>
<path d="M247.182 63.4313C247.182 67.8063 240.619 67.8063 240.619 63.4313C240.619 59.0563 247.182 59.0563 247.182 63.4313Z" fill="black"/>
<path d="M258.123 63.4313C258.123 67.8063 251.561 67.8063 251.561 63.4313C251.561 59.0563 258.123 59.0563 258.123 63.4313Z" fill="black"/>
<path d="M269.062 63.4313C269.062 67.8063 262.5 67.8063 262.5 63.4313C262.5 59.0563 269.062 59.0563 269.062 63.4313Z" fill="black"/>
<path d="M279.992 63.4313C279.992 67.8063 273.43 67.8063 273.43 63.4313C273.43 59.0563 279.992 59.0563 279.992 63.4313Z" fill="black"/>
<path d="M290.932 63.4313C290.932 67.8063 284.369 67.8063 284.369 63.4313C284.369 59.0563 290.932 59.0563 290.932 63.4313Z" fill="black"/>
<path d="M301.873 63.4313C301.873 67.8063 295.311 67.8063 295.311 63.4313C295.311 59.0563 301.873 59.0563 301.873 63.4313Z" fill="black"/>
<path d="M312.812 63.4313C312.812 67.8063 306.25 67.8063 306.25 63.4313C306.25 59.0563 312.812 59.0563 312.812 63.4313Z" fill="black"/>
<path d="M323.742 63.4313C323.742 67.8063 317.18 67.8063 317.18 63.4313C317.18 59.0563 323.742 59.0563 323.742 63.4313Z" fill="black"/>
<path d="M334.682 63.4313C334.682 67.8063 328.119 67.8063 328.119 63.4313C328.119 59.0563 334.682 59.0563 334.682 63.4313Z" fill="black"/>
<path d="M345.623 63.4313C345.623 67.8063 339.061 67.8063 339.061 63.4313C339.061 59.0563 345.623 59.0563 345.623 63.4313Z" fill="black"/>
<path d="M356.562 63.4313C356.562 67.8063 350 67.8063 350 63.4313C350 59.0563 356.562 59.0563 356.562 63.4313Z" fill="black"/>
<path d="M367.492 63.4313C367.492 67.8063 360.93 67.8063 360.93 63.4313C360.93 59.0563 367.492 59.0563 367.492 63.4313Z" fill="black"/>
<path d="M378.432 63.4313C378.432 67.8063 371.869 67.8063 371.869 63.4313C371.869 59.0563 378.432 59.0563 378.432 63.4313Z" fill="black"/>
<path d="M389.373 63.4313C389.373 67.8063 382.811 67.8063 382.811 63.4313C382.811 59.0563 389.373 59.0563 389.373 63.4313Z" fill="black"/>
<path d="M400.312 63.4313C400.312 67.8063 393.75 67.8063 393.75 63.4313C393.75 59.0563 400.312 59.0563 400.312 63.4313Z" fill="black"/>
<path d="M411.242 63.4313C411.242 67.8063 404.68 67.8063 404.68 63.4313C404.68 59.0563 411.242 59.0563 411.242 63.4313Z" fill="black"/>
<path d="M422.182 63.4313C422.182 67.8063 415.619 67.8063 415.619 63.4313C415.619 59.0563 422.182 59.0563 422.182 63.4313Z" fill="black"/>
<path d="M433.123 63.4313C433.123 67.8063 426.561 67.8063 426.561 63.4313C426.561 59.0563 433.123 59.0563 433.123 63.4313Z" fill="black"/>
<path d="M444.062 63.4313C444.062 67.8063 437.5 67.8063 437.5 63.4313C437.5 59.0563 444.062 59.0563 444.062 63.4313Z" fill="black"/>
<path d="M454.992 63.4313C454.992 67.8063 448.43 67.8063 448.43 63.4313C448.43 59.0563 454.992 59.0563 454.992 63.4313Z" fill="black"/>
<path d="M465.932 63.4313C465.932 67.8063 459.369 67.8063 459.369 63.4313C459.369 59.0563 465.932 59.0563 465.932 63.4313Z" fill="black"/>
<path d="M476.873 63.4313C476.873 67.8063 470.311 67.8063 470.311 63.4313C470.311 59.0563 476.873 59.0563 476.873 63.4313Z" fill="black"/>
<path d="M487.812 63.4313C487.812 67.8063 481.25 67.8063 481.25 63.4313C481.25 59.0563 487.812 59.0563 487.812 63.4313Z" fill="black"/>
<path d="M6.5625 75.4612C6.5625 79.8362 0 79.8362 0 75.4612C0 71.0862 6.5625 71.0862 6.5625 75.4612Z" fill="black"/>
<path d="M17.4922 75.4612C17.4922 79.8362 10.9297 79.8362 10.9297 75.4612C10.9297 71.0862 17.4922 71.0862 17.4922 75.4612Z" fill="black"/>
<path d="M28.4316 75.4612C28.4316 79.8362 21.8691 79.8362 21.8691 75.4612C21.8691 71.0862 28.4316 71.0862 28.4316 75.4612Z" fill="black"/>
<path d="M39.373 75.4612C39.373 79.8362 32.8105 79.8362 32.8105 75.4612C32.8105 71.0862 39.373 71.0862 39.373 75.4612Z" fill="black"/>
<path d="M50.3125 75.4612C50.3125 79.8362 43.75 79.8362 43.75 75.4612C43.75 71.0862 50.3125 71.0862 50.3125 75.4612Z" fill="black"/>
<path d="M61.2422 75.4612C61.2422 79.8362 54.6797 79.8362 54.6797 75.4612C54.6797 71.0862 61.2422 71.0862 61.2422 75.4612Z" fill="black"/>
<path d="M72.1816 75.4612C72.1816 79.8362 65.6191 79.8362 65.6191 75.4612C65.6191 71.0862 72.1816 71.0862 72.1816 75.4612Z" fill="black"/>
<path d="M83.123 75.4612C83.123 79.8362 76.5605 79.8362 76.5605 75.4612C76.5605 71.0862 83.123 71.0862 83.123 75.4612Z" fill="black"/>
<path d="M94.0625 75.4612C94.0625 79.8362 87.5 79.8362 87.5 75.4612C87.5 71.0862 94.0625 71.0862 94.0625 75.4612Z" fill="black"/>
<path d="M104.992 75.4612C104.992 79.8362 98.4297 79.8362 98.4297 75.4612C98.4297 71.0862 104.992 71.0862 104.992 75.4612Z" fill="black"/>
<path d="M115.932 75.4612C115.932 79.8362 109.369 79.8362 109.369 75.4612C109.369 71.0862 115.932 71.0862 115.932 75.4612Z" fill="black"/>
<path d="M126.873 75.4612C126.873 79.8362 120.311 79.8362 120.311 75.4612C120.311 71.0862 126.873 71.0862 126.873 75.4612Z" fill="black"/>
<path d="M137.812 75.4612C137.812 79.8362 131.25 79.8362 131.25 75.4612C131.25 71.0862 137.812 71.0862 137.812 75.4612Z" fill="black"/>
<path d="M148.742 75.4612C148.742 79.8362 142.18 79.8362 142.18 75.4612C142.18 71.0862 148.742 71.0862 148.742 75.4612Z" fill="black"/>
<path d="M159.682 75.4612C159.682 79.8362 153.119 79.8362 153.119 75.4612C153.119 71.0862 159.682 71.0862 159.682 75.4612Z" fill="black"/>
<path d="M170.623 75.4612C170.623 79.8362 164.061 79.8362 164.061 75.4612C164.061 71.0862 170.623 71.0862 170.623 75.4612Z" fill="black"/>
<path d="M181.562 75.4612C181.562 79.8362 175 79.8362 175 75.4612C175 71.0862 181.562 71.0862 181.562 75.4612Z" fill="black"/>
<path d="M192.492 75.4612C192.492 79.8362 185.93 79.8362 185.93 75.4612C185.93 71.0862 192.492 71.0862 192.492 75.4612Z" fill="black"/>
<path d="M203.432 75.4612C203.432 79.8362 196.869 79.8362 196.869 75.4612C196.869 71.0862 203.432 71.0862 203.432 75.4612Z" fill="black"/>
<path d="M214.373 75.4612C214.373 79.8362 207.811 79.8362 207.811 75.4612C207.811 71.0862 214.373 71.0862 214.373 75.4612Z" fill="black"/>
<path d="M225.312 75.4612C225.312 79.8362 218.75 79.8362 218.75 75.4612C218.75 71.0862 225.312 71.0862 225.312 75.4612Z" fill="black"/>
<path d="M236.242 75.4612C236.242 79.8362 229.68 79.8362 229.68 75.4612C229.68 71.0862 236.242 71.0862 236.242 75.4612Z" fill="black"/>
<path d="M247.182 75.4612C247.182 79.8362 240.619 79.8362 240.619 75.4612C240.619 71.0862 247.182 71.0862 247.182 75.4612Z" fill="black"/>
<path d="M258.123 75.4612C258.123 79.8362 251.561 79.8362 251.561 75.4612C251.561 71.0862 258.123 71.0862 258.123 75.4612Z" fill="black"/>
<path d="M269.062 75.4612C269.062 79.8362 262.5 79.8362 262.5 75.4612C262.5 71.0862 269.062 71.0862 269.062 75.4612Z" fill="black"/>
<path d="M279.992 75.4612C279.992 79.8362 273.43 79.8362 273.43 75.4612C273.43 71.0862 279.992 71.0862 279.992 75.4612Z" fill="black"/>
<path d="M290.932 75.4612C290.932 79.8362 284.369 79.8362 284.369 75.4612C284.369 71.0862 290.932 71.0862 290.932 75.4612Z" fill="black"/>
<path d="M301.873 75.4612C301.873 79.8362 295.311 79.8362 295.311 75.4612C295.311 71.0862 301.873 71.0862 301.873 75.4612Z" fill="black"/>
<path d="M312.812 75.4612C312.812 79.8362 306.25 79.8362 306.25 75.4612C306.25 71.0862 312.812 71.0862 312.812 75.4612Z" fill="black"/>
<path d="M323.742 75.4612C323.742 79.8362 317.18 79.8362 317.18 75.4612C317.18 71.0862 323.742 71.0862 323.742 75.4612Z" fill="black"/>
<path d="M334.682 75.4612C334.682 79.8362 328.119 79.8362 328.119 75.4612C328.119 71.0862 334.682 71.0862 334.682 75.4612Z" fill="black"/>
<path d="M345.623 75.4612C345.623 79.8362 339.061 79.8362 339.061 75.4612C339.061 71.0862 345.623 71.0862 345.623 75.4612Z" fill="black"/>
<path d="M356.562 75.4612C356.562 79.8362 350 79.8362 350 75.4612C350 71.0862 356.562 71.0862 356.562 75.4612Z" fill="black"/>
<path d="M367.492 75.4612C367.492 79.8362 360.93 79.8362 360.93 75.4612C360.93 71.0862 367.492 71.0862 367.492 75.4612Z" fill="black"/>
<path d="M378.432 75.4612C378.432 79.8362 371.869 79.8362 371.869 75.4612C371.869 71.0862 378.432 71.0862 378.432 75.4612Z" fill="black"/>
<path d="M389.373 75.4612C389.373 79.8362 382.811 79.8362 382.811 75.4612C382.811 71.0862 389.373 71.0862 389.373 75.4612Z" fill="black"/>
<path d="M400.312 75.4612C400.312 79.8362 393.75 79.8362 393.75 75.4612C393.75 71.0862 400.312 71.0862 400.312 75.4612Z" fill="black"/>
<path d="M411.242 75.4612C411.242 79.8362 404.68 79.8362 404.68 75.4612C404.68 71.0862 411.242 71.0862 411.242 75.4612Z" fill="black"/>
<path d="M422.182 75.4612C422.182 79.8362 415.619 79.8362 415.619 75.4612C415.619 71.0862 422.182 71.0862 422.182 75.4612Z" fill="black"/>
<path d="M433.123 75.4612C433.123 79.8362 426.561 79.8362 426.561 75.4612C426.561 71.0862 433.123 71.0862 433.123 75.4612Z" fill="black"/>
<path d="M444.062 75.4612C444.062 79.8362 437.5 79.8362 437.5 75.4612C437.5 71.0862 444.062 71.0862 444.062 75.4612Z" fill="black"/>
<path d="M454.992 75.4612C454.992 79.8362 448.43 79.8362 448.43 75.4612C448.43 71.0862 454.992 71.0862 454.992 75.4612Z" fill="black"/>
<path d="M465.932 75.4612C465.932 79.8362 459.369 79.8362 459.369 75.4612C459.369 71.0862 465.932 71.0862 465.932 75.4612Z" fill="black"/>
<path d="M476.873 75.4612C476.873 79.8362 470.311 79.8362 470.311 75.4612C470.311 71.0862 476.873 71.0862 476.873 75.4612Z" fill="black"/>
<path d="M487.812 75.4612C487.812 79.8362 481.25 79.8362 481.25 75.4612C481.25 71.0862 487.812 71.0862 487.812 75.4612Z" fill="black"/>
<path d="M6.5625 87.4913C6.5625 91.8663 0 91.8663 0 87.4913C0 83.1163 6.5625 83.1163 6.5625 87.4913Z" fill="black"/>
<path d="M17.4922 87.4913C17.4922 91.8663 10.9297 91.8663 10.9297 87.4913C10.9297 83.1163 17.4922 83.1163 17.4922 87.4913Z" fill="black"/>
<path d="M28.4316 87.4913C28.4316 91.8663 21.8691 91.8663 21.8691 87.4913C21.8691 83.1163 28.4316 83.1163 28.4316 87.4913Z" fill="black"/>
<path d="M39.373 87.4913C39.373 91.8663 32.8105 91.8663 32.8105 87.4913C32.8105 83.1163 39.373 83.1163 39.373 87.4913Z" fill="black"/>
<path d="M50.3125 87.4913C50.3125 91.8663 43.75 91.8663 43.75 87.4913C43.75 83.1163 50.3125 83.1163 50.3125 87.4913Z" fill="black"/>
<path d="M61.2422 87.4913C61.2422 91.8663 54.6797 91.8663 54.6797 87.4913C54.6797 83.1163 61.2422 83.1163 61.2422 87.4913Z" fill="black"/>
<path d="M72.1816 87.4913C72.1816 91.8663 65.6191 91.8663 65.6191 87.4913C65.6191 83.1163 72.1816 83.1163 72.1816 87.4913Z" fill="black"/>
<path d="M83.123 87.4913C83.123 91.8663 76.5605 91.8663 76.5605 87.4913C76.5605 83.1163 83.123 83.1163 83.123 87.4913Z" fill="black"/>
<path d="M94.0625 87.4913C94.0625 91.8663 87.5 91.8663 87.5 87.4913C87.5 83.1163 94.0625 83.1163 94.0625 87.4913Z" fill="black"/>
<path d="M104.992 87.4913C104.992 91.8663 98.4297 91.8663 98.4297 87.4913C98.4297 83.1163 104.992 83.1163 104.992 87.4913Z" fill="black"/>
<path d="M115.932 87.4913C115.932 91.8663 109.369 91.8663 109.369 87.4913C109.369 83.1163 115.932 83.1163 115.932 87.4913Z" fill="black"/>
<path d="M126.873 87.4913C126.873 91.8663 120.311 91.8663 120.311 87.4913C120.311 83.1163 126.873 83.1163 126.873 87.4913Z" fill="black"/>
<path d="M137.812 87.4913C137.812 91.8663 131.25 91.8663 131.25 87.4913C131.25 83.1163 137.812 83.1163 137.812 87.4913Z" fill="black"/>
<path d="M148.742 87.4913C148.742 91.8663 142.18 91.8663 142.18 87.4913C142.18 83.1163 148.742 83.1163 148.742 87.4913Z" fill="black"/>
<path d="M159.682 87.4913C159.682 91.8663 153.119 91.8663 153.119 87.4913C153.119 83.1163 159.682 83.1163 159.682 87.4913Z" fill="black"/>
<path d="M170.623 87.4913C170.623 91.8663 164.061 91.8663 164.061 87.4913C164.061 83.1163 170.623 83.1163 170.623 87.4913Z" fill="black"/>
<path d="M181.562 87.4913C181.562 91.8663 175 91.8663 175 87.4913C175 83.1163 181.562 83.1163 181.562 87.4913Z" fill="black"/>
<path d="M192.492 87.4913C192.492 91.8663 185.93 91.8663 185.93 87.4913C185.93 83.1163 192.492 83.1163 192.492 87.4913Z" fill="black"/>
<path d="M203.432 87.4913C203.432 91.8663 196.869 91.8663 196.869 87.4913C196.869 83.1163 203.432 83.1163 203.432 87.4913Z" fill="black"/>
<path d="M214.373 87.4913C214.373 91.8663 207.811 91.8663 207.811 87.4913C207.811 83.1163 214.373 83.1163 214.373 87.4913Z" fill="black"/>
<path d="M225.312 87.4913C225.312 91.8663 218.75 91.8663 218.75 87.4913C218.75 83.1163 225.312 83.1163 225.312 87.4913Z" fill="black"/>
<path d="M236.242 87.4913C236.242 91.8663 229.68 91.8663 229.68 87.4913C229.68 83.1163 236.242 83.1163 236.242 87.4913Z" fill="black"/>
<path d="M247.182 87.4913C247.182 91.8663 240.619 91.8663 240.619 87.4913C240.619 83.1163 247.182 83.1163 247.182 87.4913Z" fill="black"/>
<path d="M258.123 87.4913C258.123 91.8663 251.561 91.8663 251.561 87.4913C251.561 83.1163 258.123 83.1163 258.123 87.4913Z" fill="black"/>
<path d="M269.062 87.4913C269.062 91.8663 262.5 91.8663 262.5 87.4913C262.5 83.1163 269.062 83.1163 269.062 87.4913Z" fill="black"/>
<path d="M279.992 87.4913C279.992 91.8663 273.43 91.8663 273.43 87.4913C273.43 83.1163 279.992 83.1163 279.992 87.4913Z" fill="black"/>
<path d="M290.932 87.4913C290.932 91.8663 284.369 91.8663 284.369 87.4913C284.369 83.1163 290.932 83.1163 290.932 87.4913Z" fill="black"/>
<path d="M301.873 87.4913C301.873 91.8663 295.311 91.8663 295.311 87.4913C295.311 83.1163 301.873 83.1163 301.873 87.4913Z" fill="black"/>
<path d="M312.812 87.4913C312.812 91.8663 306.25 91.8663 306.25 87.4913C306.25 83.1163 312.812 83.1163 312.812 87.4913Z" fill="black"/>
<path d="M323.742 87.4913C323.742 91.8663 317.18 91.8663 317.18 87.4913C317.18 83.1163 323.742 83.1163 323.742 87.4913Z" fill="black"/>
<path d="M334.682 87.4913C334.682 91.8663 328.119 91.8663 328.119 87.4913C328.119 83.1163 334.682 83.1163 334.682 87.4913Z" fill="black"/>
<path d="M345.623 87.4913C345.623 91.8663 339.061 91.8663 339.061 87.4913C339.061 83.1163 345.623 83.1163 345.623 87.4913Z" fill="black"/>
<path d="M356.562 87.4913C356.562 91.8663 350 91.8663 350 87.4913C350 83.1163 356.562 83.1163 356.562 87.4913Z" fill="black"/>
<path d="M367.492 87.4913C367.492 91.8663 360.93 91.8663 360.93 87.4913C360.93 83.1163 367.492 83.1163 367.492 87.4913Z" fill="black"/>
<path d="M378.432 87.4913C378.432 91.8663 371.869 91.8663 371.869 87.4913C371.869 83.1163 378.432 83.1163 378.432 87.4913Z" fill="black"/>
<path d="M389.373 87.4913C389.373 91.8663 382.811 91.8663 382.811 87.4913C382.811 83.1163 389.373 83.1163 389.373 87.4913Z" fill="black"/>
<path d="M400.312 87.4913C400.312 91.8663 393.75 91.8663 393.75 87.4913C393.75 83.1163 400.312 83.1163 400.312 87.4913Z" fill="black"/>
<path d="M411.242 87.4913C411.242 91.8663 404.68 91.8663 404.68 87.4913C404.68 83.1163 411.242 83.1163 411.242 87.4913Z" fill="black"/>
<path d="M422.182 87.4913C422.182 91.8663 415.619 91.8663 415.619 87.4913C415.619 83.1163 422.182 83.1163 422.182 87.4913Z" fill="black"/>
<path d="M433.123 87.4913C433.123 91.8663 426.561 91.8663 426.561 87.4913C426.561 83.1163 433.123 83.1163 433.123 87.4913Z" fill="black"/>
<path d="M444.062 87.4913C444.062 91.8663 437.5 91.8663 437.5 87.4913C437.5 83.1163 444.062 83.1163 444.062 87.4913Z" fill="black"/>
<path d="M454.992 87.4913C454.992 91.8663 448.43 91.8663 448.43 87.4913C448.43 83.1163 454.992 83.1163 454.992 87.4913Z" fill="black"/>
<path d="M465.932 87.4913C465.932 91.8663 459.369 91.8663 459.369 87.4913C459.369 83.1163 465.932 83.1163 465.932 87.4913Z" fill="black"/>
<path d="M476.873 87.4913C476.873 91.8663 470.311 91.8663 470.311 87.4913C470.311 83.1163 476.873 83.1163 476.873 87.4913Z" fill="black"/>
<path d="M487.812 87.4913C487.812 91.8663 481.25 91.8663 481.25 87.4913C481.25 83.1163 487.812 83.1163 487.812 87.4913Z" fill="black"/>
<path d="M6.5625 99.5312C6.5625 103.906 0 103.906 0 99.5312C0 95.1562 6.5625 95.1562 6.5625 99.5312Z" fill="black"/>
<path d="M17.4922 99.5312C17.4922 103.906 10.9297 103.906 10.9297 99.5312C10.9297 95.1562 17.4922 95.1562 17.4922 99.5312Z" fill="black"/>
<path d="M28.4316 99.5312C28.4316 103.906 21.8691 103.906 21.8691 99.5312C21.8691 95.1562 28.4316 95.1562 28.4316 99.5312Z" fill="black"/>
<path d="M39.373 99.5312C39.373 103.906 32.8105 103.906 32.8105 99.5312C32.8105 95.1562 39.373 95.1562 39.373 99.5312Z" fill="black"/>
<path d="M50.3125 99.5312C50.3125 103.906 43.75 103.906 43.75 99.5312C43.75 95.1562 50.3125 95.1562 50.3125 99.5312Z" fill="black"/>
<path d="M61.2422 99.5312C61.2422 103.906 54.6797 103.906 54.6797 99.5312C54.6797 95.1562 61.2422 95.1562 61.2422 99.5312Z" fill="black"/>
<path d="M72.1816 99.5312C72.1816 103.906 65.6191 103.906 65.6191 99.5312C65.6191 95.1562 72.1816 95.1562 72.1816 99.5312Z" fill="black"/>
<path d="M83.123 99.5312C83.123 103.906 76.5605 103.906 76.5605 99.5312C76.5605 95.1562 83.123 95.1562 83.123 99.5312Z" fill="black"/>
<path d="M94.0625 99.5312C94.0625 103.906 87.5 103.906 87.5 99.5312C87.5 95.1562 94.0625 95.1562 94.0625 99.5312Z" fill="black"/>
<path d="M104.992 99.5312C104.992 103.906 98.4297 103.906 98.4297 99.5312C98.4297 95.1562 104.992 95.1562 104.992 99.5312Z" fill="black"/>
<path d="M115.932 99.5312C115.932 103.906 109.369 103.906 109.369 99.5312C109.369 95.1562 115.932 95.1562 115.932 99.5312Z" fill="black"/>
<path d="M126.873 99.5312C126.873 103.906 120.311 103.906 120.311 99.5312C120.311 95.1562 126.873 95.1562 126.873 99.5312Z" fill="black"/>
<path d="M137.812 99.5312C137.812 103.906 131.25 103.906 131.25 99.5312C131.25 95.1562 137.812 95.1562 137.812 99.5312Z" fill="black"/>
<path d="M148.742 99.5312C148.742 103.906 142.18 103.906 142.18 99.5312C142.18 95.1562 148.742 95.1562 148.742 99.5312Z" fill="black"/>
<path d="M159.682 99.5312C159.682 103.906 153.119 103.906 153.119 99.5312C153.119 95.1562 159.682 95.1562 159.682 99.5312Z" fill="black"/>
<path d="M170.623 99.5312C170.623 103.906 164.061 103.906 164.061 99.5312C164.061 95.1562 170.623 95.1562 170.623 99.5312Z" fill="black"/>
<path d="M181.562 99.5312C181.562 103.906 175 103.906 175 99.5312C175 95.1562 181.562 95.1562 181.562 99.5312Z" fill="black"/>
<path d="M192.492 99.5312C192.492 103.906 185.93 103.906 185.93 99.5312C185.93 95.1562 192.492 95.1562 192.492 99.5312Z" fill="black"/>
<path d="M203.432 99.5312C203.432 103.906 196.869 103.906 196.869 99.5312C196.869 95.1562 203.432 95.1562 203.432 99.5312Z" fill="black"/>
<path d="M214.373 99.5312C214.373 103.906 207.811 103.906 207.811 99.5312C207.811 95.1562 214.373 95.1562 214.373 99.5312Z" fill="black"/>
<path d="M225.312 99.5312C225.312 103.906 218.75 103.906 218.75 99.5312C218.75 95.1562 225.312 95.1562 225.312 99.5312Z" fill="black"/>
<path d="M236.242 99.5312C236.242 103.906 229.68 103.906 229.68 99.5312C229.68 95.1562 236.242 95.1562 236.242 99.5312Z" fill="black"/>
<path d="M247.182 99.5312C247.182 103.906 240.619 103.906 240.619 99.5312C240.619 95.1562 247.182 95.1562 247.182 99.5312Z" fill="black"/>
<path d="M258.123 99.5312C258.123 103.906 251.561 103.906 251.561 99.5312C251.561 95.1562 258.123 95.1562 258.123 99.5312Z" fill="black"/>
<path d="M269.062 99.5312C269.062 103.906 262.5 103.906 262.5 99.5312C262.5 95.1562 269.062 95.1562 269.062 99.5312Z" fill="black"/>
<path d="M279.992 99.5312C279.992 103.906 273.43 103.906 273.43 99.5312C273.43 95.1562 279.992 95.1562 279.992 99.5312Z" fill="black"/>
<path d="M290.932 99.5312C290.932 103.906 284.369 103.906 284.369 99.5312C284.369 95.1562 290.932 95.1562 290.932 99.5312Z" fill="black"/>
<path d="M301.873 99.5312C301.873 103.906 295.311 103.906 295.311 99.5312C295.311 95.1562 301.873 95.1562 301.873 99.5312Z" fill="black"/>
<path d="M312.812 99.5312C312.812 103.906 306.25 103.906 306.25 99.5312C306.25 95.1562 312.812 95.1562 312.812 99.5312Z" fill="black"/>
<path d="M323.742 99.5312C323.742 103.906 317.18 103.906 317.18 99.5312C317.18 95.1562 323.742 95.1562 323.742 99.5312Z" fill="black"/>
<path d="M334.682 99.5312C334.682 103.906 328.119 103.906 328.119 99.5312C328.119 95.1562 334.682 95.1562 334.682 99.5312Z" fill="black"/>
<path d="M345.623 99.5312C345.623 103.906 339.061 103.906 339.061 99.5312C339.061 95.1562 345.623 95.1562 345.623 99.5312Z" fill="black"/>
<path d="M356.562 99.5312C356.562 103.906 350 103.906 350 99.5312C350 95.1562 356.562 95.1562 356.562 99.5312Z" fill="black"/>
<path d="M367.492 99.5312C367.492 103.906 360.93 103.906 360.93 99.5312C360.93 95.1562 367.492 95.1562 367.492 99.5312Z" fill="black"/>
<path d="M378.432 99.5312C378.432 103.906 371.869 103.906 371.869 99.5312C371.869 95.1562 378.432 95.1562 378.432 99.5312Z" fill="black"/>
<path d="M389.373 99.5312C389.373 103.906 382.811 103.906 382.811 99.5312C382.811 95.1562 389.373 95.1562 389.373 99.5312Z" fill="black"/>
<path d="M400.312 99.5312C400.312 103.906 393.75 103.906 393.75 99.5312C393.75 95.1562 400.312 95.1562 400.312 99.5312Z" fill="black"/>
<path d="M411.242 99.5312C411.242 103.906 404.68 103.906 404.68 99.5312C404.68 95.1562 411.242 95.1562 411.242 99.5312Z" fill="black"/>
<path d="M422.182 99.5312C422.182 103.906 415.619 103.906 415.619 99.5312C415.619 95.1562 422.182 95.1562 422.182 99.5312Z" fill="black"/>
<path d="M433.123 99.5312C433.123 103.906 426.561 103.906 426.561 99.5312C426.561 95.1562 433.123 95.1562 433.123 99.5312Z" fill="black"/>
<path d="M444.062 99.5312C444.062 103.906 437.5 103.906 437.5 99.5312C437.5 95.1562 444.062 95.1562 444.062 99.5312Z" fill="black"/>
<path d="M454.992 99.5312C454.992 103.906 448.43 103.906 448.43 99.5312C448.43 95.1562 454.992 95.1562 454.992 99.5312Z" fill="black"/>
<path d="M465.932 99.5312C465.932 103.906 459.369 103.906 459.369 99.5312C459.369 95.1562 465.932 95.1562 465.932 99.5312Z" fill="black"/>
<path d="M476.873 99.5312C476.873 103.906 470.311 103.906 470.311 99.5312C470.311 95.1562 476.873 95.1562 476.873 99.5312Z" fill="black"/>
<path d="M487.812 99.5312C487.812 103.906 481.25 103.906 481.25 99.5312C481.25 95.1562 487.812 95.1562 487.812 99.5312Z" fill="black"/>
<path d="M6.5625 111.561C6.5625 115.936 0 115.936 0 111.561C0 107.186 6.5625 107.186 6.5625 111.561Z" fill="black"/>
<path d="M17.4922 111.561C17.4922 115.936 10.9297 115.936 10.9297 111.561C10.9297 107.186 17.4922 107.186 17.4922 111.561Z" fill="black"/>
<path d="M28.4316 111.561C28.4316 115.936 21.8691 115.936 21.8691 111.561C21.8691 107.186 28.4316 107.186 28.4316 111.561Z" fill="black"/>
<path d="M39.373 111.561C39.373 115.936 32.8105 115.936 32.8105 111.561C32.8105 107.186 39.373 107.186 39.373 111.561Z" fill="black"/>
<path d="M50.3125 111.561C50.3125 115.936 43.75 115.936 43.75 111.561C43.75 107.186 50.3125 107.186 50.3125 111.561Z" fill="black"/>
<path d="M61.2422 111.561C61.2422 115.936 54.6797 115.936 54.6797 111.561C54.6797 107.186 61.2422 107.186 61.2422 111.561Z" fill="black"/>
<path d="M72.1816 111.561C72.1816 115.936 65.6191 115.936 65.6191 111.561C65.6191 107.186 72.1816 107.186 72.1816 111.561Z" fill="black"/>
<path d="M83.123 111.561C83.123 115.936 76.5605 115.936 76.5605 111.561C76.5605 107.186 83.123 107.186 83.123 111.561Z" fill="black"/>
<path d="M94.0625 111.561C94.0625 115.936 87.5 115.936 87.5 111.561C87.5 107.186 94.0625 107.186 94.0625 111.561Z" fill="black"/>
<path d="M104.992 111.561C104.992 115.936 98.4297 115.936 98.4297 111.561C98.4297 107.186 104.992 107.186 104.992 111.561Z" fill="black"/>
<path d="M115.932 111.561C115.932 115.936 109.369 115.936 109.369 111.561C109.369 107.186 115.932 107.186 115.932 111.561Z" fill="black"/>
<path d="M126.873 111.561C126.873 115.936 120.311 115.936 120.311 111.561C120.311 107.186 126.873 107.186 126.873 111.561Z" fill="black"/>
<path d="M137.812 111.561C137.812 115.936 131.25 115.936 131.25 111.561C131.25 107.186 137.812 107.186 137.812 111.561Z" fill="black"/>
<path d="M148.742 111.561C148.742 115.936 142.18 115.936 142.18 111.561C142.18 107.186 148.742 107.186 148.742 111.561Z" fill="black"/>
<path d="M159.682 111.561C159.682 115.936 153.119 115.936 153.119 111.561C153.119 107.186 159.682 107.186 159.682 111.561Z" fill="black"/>
<path d="M170.623 111.561C170.623 115.936 164.061 115.936 164.061 111.561C164.061 107.186 170.623 107.186 170.623 111.561Z" fill="black"/>
<path d="M181.562 111.561C181.562 115.936 175 115.936 175 111.561C175 107.186 181.562 107.186 181.562 111.561Z" fill="black"/>
<path d="M192.492 111.561C192.492 115.936 185.93 115.936 185.93 111.561C185.93 107.186 192.492 107.186 192.492 111.561Z" fill="black"/>
<path d="M203.432 111.561C203.432 115.936 196.869 115.936 196.869 111.561C196.869 107.186 203.432 107.186 203.432 111.561Z" fill="black"/>
<path d="M214.373 111.561C214.373 115.936 207.811 115.936 207.811 111.561C207.811 107.186 214.373 107.186 214.373 111.561Z" fill="black"/>
<path d="M225.312 111.561C225.312 115.936 218.75 115.936 218.75 111.561C218.75 107.186 225.312 107.186 225.312 111.561Z" fill="black"/>
<path d="M236.242 111.561C236.242 115.936 229.68 115.936 229.68 111.561C229.68 107.186 236.242 107.186 236.242 111.561Z" fill="black"/>
<path d="M247.182 111.561C247.182 115.936 240.619 115.936 240.619 111.561C240.619 107.186 247.182 107.186 247.182 111.561Z" fill="black"/>
<path d="M258.123 111.561C258.123 115.936 251.561 115.936 251.561 111.561C251.561 107.186 258.123 107.186 258.123 111.561Z" fill="black"/>
<path d="M269.062 111.561C269.062 115.936 262.5 115.936 262.5 111.561C262.5 107.186 269.062 107.186 269.062 111.561Z" fill="black"/>
<path d="M279.992 111.561C279.992 115.936 273.43 115.936 273.43 111.561C273.43 107.186 279.992 107.186 279.992 111.561Z" fill="black"/>
<path d="M290.932 111.561C290.932 115.936 284.369 115.936 284.369 111.561C284.369 107.186 290.932 107.186 290.932 111.561Z" fill="black"/>
<path d="M301.873 111.561C301.873 115.936 295.311 115.936 295.311 111.561C295.311 107.186 301.873 107.186 301.873 111.561Z" fill="black"/>
<path d="M312.812 111.561C312.812 115.936 306.25 115.936 306.25 111.561C306.25 107.186 312.812 107.186 312.812 111.561Z" fill="black"/>
<path d="M323.742 111.561C323.742 115.936 317.18 115.936 317.18 111.561C317.18 107.186 323.742 107.186 323.742 111.561Z" fill="black"/>
<path d="M334.682 111.561C334.682 115.936 328.119 115.936 328.119 111.561C328.119 107.186 334.682 107.186 334.682 111.561Z" fill="black"/>
<path d="M345.623 111.561C345.623 115.936 339.061 115.936 339.061 111.561C339.061 107.186 345.623 107.186 345.623 111.561Z" fill="black"/>
<path d="M356.562 111.561C356.562 115.936 350 115.936 350 111.561C350 107.186 356.562 107.186 356.562 111.561Z" fill="black"/>
<path d="M367.492 111.561C367.492 115.936 360.93 115.936 360.93 111.561C360.93 107.186 367.492 107.186 367.492 111.561Z" fill="black"/>
<path d="M378.432 111.561C378.432 115.936 371.869 115.936 371.869 111.561C371.869 107.186 378.432 107.186 378.432 111.561Z" fill="black"/>
<path d="M389.373 111.561C389.373 115.936 382.811 115.936 382.811 111.561C382.811 107.186 389.373 107.186 389.373 111.561Z" fill="black"/>
<path d="M400.312 111.561C400.312 115.936 393.75 115.936 393.75 111.561C393.75 107.186 400.312 107.186 400.312 111.561Z" fill="black"/>
<path d="M411.242 111.561C411.242 115.936 404.68 115.936 404.68 111.561C404.68 107.186 411.242 107.186 411.242 111.561Z" fill="black"/>
<path d="M422.182 111.561C422.182 115.936 415.619 115.936 415.619 111.561C415.619 107.186 422.182 107.186 422.182 111.561Z" fill="black"/>
<path d="M433.123 111.561C433.123 115.936 426.561 115.936 426.561 111.561C426.561 107.186 433.123 107.186 433.123 111.561Z" fill="black"/>
<path d="M444.062 111.561C444.062 115.936 437.5 115.936 437.5 111.561C437.5 107.186 444.062 107.186 444.062 111.561Z" fill="black"/>
<path d="M454.992 111.561C454.992 115.936 448.43 115.936 448.43 111.561C448.43 107.186 454.992 107.186 454.992 111.561Z" fill="black"/>
<path d="M465.932 111.561C465.932 115.936 459.369 115.936 459.369 111.561C459.369 107.186 465.932 107.186 465.932 111.561Z" fill="black"/>
<path d="M476.873 111.561C476.873 115.936 470.311 115.936 470.311 111.561C470.311 107.186 476.873 107.186 476.873 111.561Z" fill="black"/>
<path d="M487.812 111.561C487.812 115.936 481.25 115.936 481.25 111.561C481.25 107.186 487.812 107.186 487.812 111.561Z" fill="black"/>
<path d="M6.5625 123.591C6.5625 127.966 0 127.966 0 123.591C0 119.216 6.5625 119.216 6.5625 123.591Z" fill="black"/>
<path d="M17.4922 123.591C17.4922 127.966 10.9297 127.966 10.9297 123.591C10.9297 119.216 17.4922 119.216 17.4922 123.591Z" fill="black"/>
<path d="M28.4316 123.591C28.4316 127.966 21.8691 127.966 21.8691 123.591C21.8691 119.216 28.4316 119.216 28.4316 123.591Z" fill="black"/>
<path d="M39.373 123.591C39.373 127.966 32.8105 127.966 32.8105 123.591C32.8105 119.216 39.373 119.216 39.373 123.591Z" fill="black"/>
<path d="M50.3125 123.591C50.3125 127.966 43.75 127.966 43.75 123.591C43.75 119.216 50.3125 119.216 50.3125 123.591Z" fill="black"/>
<path d="M61.2422 123.591C61.2422 127.966 54.6797 127.966 54.6797 123.591C54.6797 119.216 61.2422 119.216 61.2422 123.591Z" fill="black"/>
<path d="M72.1816 123.591C72.1816 127.966 65.6191 127.966 65.6191 123.591C65.6191 119.216 72.1816 119.216 72.1816 123.591Z" fill="black"/>
<path d="M83.123 123.591C83.123 127.966 76.5605 127.966 76.5605 123.591C76.5605 119.216 83.123 119.216 83.123 123.591Z" fill="black"/>
<path d="M94.0625 123.591C94.0625 127.966 87.5 127.966 87.5 123.591C87.5 119.216 94.0625 119.216 94.0625 123.591Z" fill="black"/>
<path d="M104.992 123.591C104.992 127.966 98.4297 127.966 98.4297 123.591C98.4297 119.216 104.992 119.216 104.992 123.591Z" fill="black"/>
<path d="M115.932 123.591C115.932 127.966 109.369 127.966 109.369 123.591C109.369 119.216 115.932 119.216 115.932 123.591Z" fill="black"/>
<path d="M126.873 123.591C126.873 127.966 120.311 127.966 120.311 123.591C120.311 119.216 126.873 119.216 126.873 123.591Z" fill="black"/>
<path d="M137.812 123.591C137.812 127.966 131.25 127.966 131.25 123.591C131.25 119.216 137.812 119.216 137.812 123.591Z" fill="black"/>
<path d="M148.742 123.591C148.742 127.966 142.18 127.966 142.18 123.591C142.18 119.216 148.742 119.216 148.742 123.591Z" fill="black"/>
<path d="M159.682 123.591C159.682 127.966 153.119 127.966 153.119 123.591C153.119 119.216 159.682 119.216 159.682 123.591Z" fill="black"/>
<path d="M170.623 123.591C170.623 127.966 164.061 127.966 164.061 123.591C164.061 119.216 170.623 119.216 170.623 123.591Z" fill="black"/>
<path d="M181.562 123.591C181.562 127.966 175 127.966 175 123.591C175 119.216 181.562 119.216 181.562 123.591Z" fill="black"/>
<path d="M192.492 123.591C192.492 127.966 185.93 127.966 185.93 123.591C185.93 119.216 192.492 119.216 192.492 123.591Z" fill="black"/>
<path d="M203.432 123.591C203.432 127.966 196.869 127.966 196.869 123.591C196.869 119.216 203.432 119.216 203.432 123.591Z" fill="black"/>
<path d="M214.373 123.591C214.373 127.966 207.811 127.966 207.811 123.591C207.811 119.216 214.373 119.216 214.373 123.591Z" fill="black"/>
<path d="M225.312 123.591C225.312 127.966 218.75 127.966 218.75 123.591C218.75 119.216 225.312 119.216 225.312 123.591Z" fill="black"/>
<path d="M236.242 123.591C236.242 127.966 229.68 127.966 229.68 123.591C229.68 119.216 236.242 119.216 236.242 123.591Z" fill="black"/>
<path d="M247.182 123.591C247.182 127.966 240.619 127.966 240.619 123.591C240.619 119.216 247.182 119.216 247.182 123.591Z" fill="black"/>
<path d="M258.123 123.591C258.123 127.966 251.561 127.966 251.561 123.591C251.561 119.216 258.123 119.216 258.123 123.591Z" fill="black"/>
<path d="M269.062 123.591C269.062 127.966 262.5 127.966 262.5 123.591C262.5 119.216 269.062 119.216 269.062 123.591Z" fill="black"/>
<path d="M279.992 123.591C279.992 127.966 273.43 127.966 273.43 123.591C273.43 119.216 279.992 119.216 279.992 123.591Z" fill="black"/>
<path d="M290.932 123.591C290.932 127.966 284.369 127.966 284.369 123.591C284.369 119.216 290.932 119.216 290.932 123.591Z" fill="black"/>
<path d="M301.873 123.591C301.873 127.966 295.311 127.966 295.311 123.591C295.311 119.216 301.873 119.216 301.873 123.591Z" fill="black"/>
<path d="M312.812 123.591C312.812 127.966 306.25 127.966 306.25 123.591C306.25 119.216 312.812 119.216 312.812 123.591Z" fill="black"/>
<path d="M323.742 123.591C323.742 127.966 317.18 127.966 317.18 123.591C317.18 119.216 323.742 119.216 323.742 123.591Z" fill="black"/>
<path d="M334.682 123.591C334.682 127.966 328.119 127.966 328.119 123.591C328.119 119.216 334.682 119.216 334.682 123.591Z" fill="black"/>
<path d="M345.623 123.591C345.623 127.966 339.061 127.966 339.061 123.591C339.061 119.216 345.623 119.216 345.623 123.591Z" fill="black"/>
<path d="M356.562 123.591C356.562 127.966 350 127.966 350 123.591C350 119.216 356.562 119.216 356.562 123.591Z" fill="black"/>
<path d="M367.492 123.591C367.492 127.966 360.93 127.966 360.93 123.591C360.93 119.216 367.492 119.216 367.492 123.591Z" fill="black"/>
<path d="M378.432 123.591C378.432 127.966 371.869 127.966 371.869 123.591C371.869 119.216 378.432 119.216 378.432 123.591Z" fill="black"/>
<path d="M389.373 123.591C389.373 127.966 382.811 127.966 382.811 123.591C382.811 119.216 389.373 119.216 389.373 123.591Z" fill="black"/>
<path d="M400.312 123.591C400.312 127.966 393.75 127.966 393.75 123.591C393.75 119.216 400.312 119.216 400.312 123.591Z" fill="black"/>
<path d="M411.242 123.591C411.242 127.966 404.68 127.966 404.68 123.591C404.68 119.216 411.242 119.216 411.242 123.591Z" fill="black"/>
<path d="M422.182 123.591C422.182 127.966 415.619 127.966 415.619 123.591C415.619 119.216 422.182 119.216 422.182 123.591Z" fill="black"/>
<path d="M433.123 123.591C433.123 127.966 426.561 127.966 426.561 123.591C426.561 119.216 433.123 119.216 433.123 123.591Z" fill="black"/>
<path d="M444.062 123.591C444.062 127.966 437.5 127.966 437.5 123.591C437.5 119.216 444.062 119.216 444.062 123.591Z" fill="black"/>
<path d="M454.992 123.591C454.992 127.966 448.43 127.966 448.43 123.591C448.43 119.216 454.992 119.216 454.992 123.591Z" fill="black"/>
<path d="M465.932 123.591C465.932 127.966 459.369 127.966 459.369 123.591C459.369 119.216 465.932 119.216 465.932 123.591Z" fill="black"/>
<path d="M476.873 123.591C476.873 127.966 470.311 127.966 470.311 123.591C470.311 119.216 476.873 119.216 476.873 123.591Z" fill="black"/>
<path d="M487.812 123.591C487.812 127.966 481.25 127.966 481.25 123.591C481.25 119.216 487.812 119.216 487.812 123.591Z" fill="black"/>
<path d="M6.5625 135.621C6.5625 139.996 0 139.996 0 135.621C0 131.246 6.5625 131.246 6.5625 135.621Z" fill="black"/>
<path d="M17.4922 135.621C17.4922 139.996 10.9297 139.996 10.9297 135.621C10.9297 131.246 17.4922 131.246 17.4922 135.621Z" fill="black"/>
<path d="M28.4316 135.621C28.4316 139.996 21.8691 139.996 21.8691 135.621C21.8691 131.246 28.4316 131.246 28.4316 135.621Z" fill="black"/>
<path d="M39.373 135.621C39.373 139.996 32.8105 139.996 32.8105 135.621C32.8105 131.246 39.373 131.246 39.373 135.621Z" fill="black"/>
<path d="M50.3125 135.621C50.3125 139.996 43.75 139.996 43.75 135.621C43.75 131.246 50.3125 131.246 50.3125 135.621Z" fill="black"/>
<path d="M61.2422 135.621C61.2422 139.996 54.6797 139.996 54.6797 135.621C54.6797 131.246 61.2422 131.246 61.2422 135.621Z" fill="black"/>
<path d="M72.1816 135.621C72.1816 139.996 65.6191 139.996 65.6191 135.621C65.6191 131.246 72.1816 131.246 72.1816 135.621Z" fill="black"/>
<path d="M83.123 135.621C83.123 139.996 76.5605 139.996 76.5605 135.621C76.5605 131.246 83.123 131.246 83.123 135.621Z" fill="black"/>
<path d="M94.0625 135.621C94.0625 139.996 87.5 139.996 87.5 135.621C87.5 131.246 94.0625 131.246 94.0625 135.621Z" fill="black"/>
<path d="M104.992 135.621C104.992 139.996 98.4297 139.996 98.4297 135.621C98.4297 131.246 104.992 131.246 104.992 135.621Z" fill="black"/>
<path d="M115.932 135.621C115.932 139.996 109.369 139.996 109.369 135.621C109.369 131.246 115.932 131.246 115.932 135.621Z" fill="black"/>
<path d="M126.873 135.621C126.873 139.996 120.311 139.996 120.311 135.621C120.311 131.246 126.873 131.246 126.873 135.621Z" fill="black"/>
<path d="M137.812 135.621C137.812 139.996 131.25 139.996 131.25 135.621C131.25 131.246 137.812 131.246 137.812 135.621Z" fill="black"/>
<path d="M148.742 135.621C148.742 139.996 142.18 139.996 142.18 135.621C142.18 131.246 148.742 131.246 148.742 135.621Z" fill="black"/>
<path d="M159.682 135.621C159.682 139.996 153.119 139.996 153.119 135.621C153.119 131.246 159.682 131.246 159.682 135.621Z" fill="black"/>
<path d="M170.623 135.621C170.623 139.996 164.061 139.996 164.061 135.621C164.061 131.246 170.623 131.246 170.623 135.621Z" fill="black"/>
<path d="M181.562 135.621C181.562 139.996 175 139.996 175 135.621C175 131.246 181.562 131.246 181.562 135.621Z" fill="black"/>
<path d="M192.492 135.621C192.492 139.996 185.93 139.996 185.93 135.621C185.93 131.246 192.492 131.246 192.492 135.621Z" fill="black"/>
<path d="M203.432 135.621C203.432 139.996 196.869 139.996 196.869 135.621C196.869 131.246 203.432 131.246 203.432 135.621Z" fill="black"/>
<path d="M214.373 135.621C214.373 139.996 207.811 139.996 207.811 135.621C207.811 131.246 214.373 131.246 214.373 135.621Z" fill="black"/>
<path d="M225.312 135.621C225.312 139.996 218.75 139.996 218.75 135.621C218.75 131.246 225.312 131.246 225.312 135.621Z" fill="black"/>
<path d="M236.242 135.621C236.242 139.996 229.68 139.996 229.68 135.621C229.68 131.246 236.242 131.246 236.242 135.621Z" fill="black"/>
<path d="M247.182 135.621C247.182 139.996 240.619 139.996 240.619 135.621C240.619 131.246 247.182 131.246 247.182 135.621Z" fill="black"/>
<path d="M258.123 135.621C258.123 139.996 251.561 139.996 251.561 135.621C251.561 131.246 258.123 131.246 258.123 135.621Z" fill="black"/>
<path d="M269.062 135.621C269.062 139.996 262.5 139.996 262.5 135.621C262.5 131.246 269.062 131.246 269.062 135.621Z" fill="black"/>
<path d="M279.992 135.621C279.992 139.996 273.43 139.996 273.43 135.621C273.43 131.246 279.992 131.246 279.992 135.621Z" fill="black"/>
<path d="M290.932 135.621C290.932 139.996 284.369 139.996 284.369 135.621C284.369 131.246 290.932 131.246 290.932 135.621Z" fill="black"/>
<path d="M301.873 135.621C301.873 139.996 295.311 139.996 295.311 135.621C295.311 131.246 301.873 131.246 301.873 135.621Z" fill="black"/>
<path d="M312.812 135.621C312.812 139.996 306.25 139.996 306.25 135.621C306.25 131.246 312.812 131.246 312.812 135.621Z" fill="black"/>
<path d="M323.742 135.621C323.742 139.996 317.18 139.996 317.18 135.621C317.18 131.246 323.742 131.246 323.742 135.621Z" fill="black"/>
<path d="M334.682 135.621C334.682 139.996 328.119 139.996 328.119 135.621C328.119 131.246 334.682 131.246 334.682 135.621Z" fill="black"/>
<path d="M345.623 135.621C345.623 139.996 339.061 139.996 339.061 135.621C339.061 131.246 345.623 131.246 345.623 135.621Z" fill="black"/>
<path d="M356.562 135.621C356.562 139.996 350 139.996 350 135.621C350 131.246 356.562 131.246 356.562 135.621Z" fill="black"/>
<path d="M367.492 135.621C367.492 139.996 360.93 139.996 360.93 135.621C360.93 131.246 367.492 131.246 367.492 135.621Z" fill="black"/>
<path d="M378.432 135.621C378.432 139.996 371.869 139.996 371.869 135.621C371.869 131.246 378.432 131.246 378.432 135.621Z" fill="black"/>
<path d="M389.373 135.621C389.373 139.996 382.811 139.996 382.811 135.621C382.811 131.246 389.373 131.246 389.373 135.621Z" fill="black"/>
<path d="M400.312 135.621C400.312 139.996 393.75 139.996 393.75 135.621C393.75 131.246 400.312 131.246 400.312 135.621Z" fill="black"/>
<path d="M411.242 135.621C411.242 139.996 404.68 139.996 404.68 135.621C404.68 131.246 411.242 131.246 411.242 135.621Z" fill="black"/>
<path d="M422.182 135.621C422.182 139.996 415.619 139.996 415.619 135.621C415.619 131.246 422.182 131.246 422.182 135.621Z" fill="black"/>
<path d="M433.123 135.621C433.123 139.996 426.561 139.996 426.561 135.621C426.561 131.246 433.123 131.246 433.123 135.621Z" fill="black"/>
<path d="M444.062 135.621C444.062 139.996 437.5 139.996 437.5 135.621C437.5 131.246 444.062 131.246 444.062 135.621Z" fill="black"/>
<path d="M454.992 135.621C454.992 139.996 448.43 139.996 448.43 135.621C448.43 131.246 454.992 131.246 454.992 135.621Z" fill="black"/>
<path d="M465.932 135.621C465.932 139.996 459.369 139.996 459.369 135.621C459.369 131.246 465.932 131.246 465.932 135.621Z" fill="black"/>
<path d="M476.873 135.621C476.873 139.996 470.311 139.996 470.311 135.621C470.311 131.246 476.873 131.246 476.873 135.621Z" fill="black"/>
<path d="M487.812 135.621C487.812 139.996 481.25 139.996 481.25 135.621C481.25 131.246 487.812 131.246 487.812 135.621Z" fill="black"/>
<path d="M6.5625 147.651C6.5625 152.026 0 152.026 0 147.651C0 143.276 6.5625 143.276 6.5625 147.651Z" fill="black"/>
<path d="M17.4922 147.651C17.4922 152.026 10.9297 152.026 10.9297 147.651C10.9297 143.276 17.4922 143.276 17.4922 147.651Z" fill="black"/>
<path d="M28.4316 147.651C28.4316 152.026 21.8691 152.026 21.8691 147.651C21.8691 143.276 28.4316 143.276 28.4316 147.651Z" fill="black"/>
<path d="M39.373 147.651C39.373 152.026 32.8105 152.026 32.8105 147.651C32.8105 143.276 39.373 143.276 39.373 147.651Z" fill="black"/>
<path d="M50.3125 147.651C50.3125 152.026 43.75 152.026 43.75 147.651C43.75 143.276 50.3125 143.276 50.3125 147.651Z" fill="black"/>
<path d="M61.2422 147.651C61.2422 152.026 54.6797 152.026 54.6797 147.651C54.6797 143.276 61.2422 143.276 61.2422 147.651Z" fill="black"/>
<path d="M72.1816 147.651C72.1816 152.026 65.6191 152.026 65.6191 147.651C65.6191 143.276 72.1816 143.276 72.1816 147.651Z" fill="black"/>
<path d="M83.123 147.651C83.123 152.026 76.5605 152.026 76.5605 147.651C76.5605 143.276 83.123 143.276 83.123 147.651Z" fill="black"/>
<path d="M94.0625 147.651C94.0625 152.026 87.5 152.026 87.5 147.651C87.5 143.276 94.0625 143.276 94.0625 147.651Z" fill="black"/>
<path d="M104.992 147.651C104.992 152.026 98.4297 152.026 98.4297 147.651C98.4297 143.276 104.992 143.276 104.992 147.651Z" fill="black"/>
<path d="M115.932 147.651C115.932 152.026 109.369 152.026 109.369 147.651C109.369 143.276 115.932 143.276 115.932 147.651Z" fill="black"/>
<path d="M126.873 147.651C126.873 152.026 120.311 152.026 120.311 147.651C120.311 143.276 126.873 143.276 126.873 147.651Z" fill="black"/>
<path d="M137.812 147.651C137.812 152.026 131.25 152.026 131.25 147.651C131.25 143.276 137.812 143.276 137.812 147.651Z" fill="black"/>
<path d="M148.742 147.651C148.742 152.026 142.18 152.026 142.18 147.651C142.18 143.276 148.742 143.276 148.742 147.651Z" fill="black"/>
<path d="M159.682 147.651C159.682 152.026 153.119 152.026 153.119 147.651C153.119 143.276 159.682 143.276 159.682 147.651Z" fill="black"/>
<path d="M170.623 147.651C170.623 152.026 164.061 152.026 164.061 147.651C164.061 143.276 170.623 143.276 170.623 147.651Z" fill="black"/>
<path d="M181.562 147.651C181.562 152.026 175 152.026 175 147.651C175 143.276 181.562 143.276 181.562 147.651Z" fill="black"/>
<path d="M192.492 147.651C192.492 152.026 185.93 152.026 185.93 147.651C185.93 143.276 192.492 143.276 192.492 147.651Z" fill="black"/>
<path d="M203.432 147.651C203.432 152.026 196.869 152.026 196.869 147.651C196.869 143.276 203.432 143.276 203.432 147.651Z" fill="black"/>
<path d="M214.373 147.651C214.373 152.026 207.811 152.026 207.811 147.651C207.811 143.276 214.373 143.276 214.373 147.651Z" fill="black"/>
<path d="M225.312 147.651C225.312 152.026 218.75 152.026 218.75 147.651C218.75 143.276 225.312 143.276 225.312 147.651Z" fill="black"/>
<path d="M236.242 147.651C236.242 152.026 229.68 152.026 229.68 147.651C229.68 143.276 236.242 143.276 236.242 147.651Z" fill="black"/>
<path d="M247.182 147.651C247.182 152.026 240.619 152.026 240.619 147.651C240.619 143.276 247.182 143.276 247.182 147.651Z" fill="black"/>
<path d="M258.123 147.651C258.123 152.026 251.561 152.026 251.561 147.651C251.561 143.276 258.123 143.276 258.123 147.651Z" fill="black"/>
<path d="M269.062 147.651C269.062 152.026 262.5 152.026 262.5 147.651C262.5 143.276 269.062 143.276 269.062 147.651Z" fill="black"/>
<path d="M279.992 147.651C279.992 152.026 273.43 152.026 273.43 147.651C273.43 143.276 279.992 143.276 279.992 147.651Z" fill="black"/>
<path d="M290.932 147.651C290.932 152.026 284.369 152.026 284.369 147.651C284.369 143.276 290.932 143.276 290.932 147.651Z" fill="black"/>
<path d="M301.873 147.651C301.873 152.026 295.311 152.026 295.311 147.651C295.311 143.276 301.873 143.276 301.873 147.651Z" fill="black"/>
<path d="M312.812 147.651C312.812 152.026 306.25 152.026 306.25 147.651C306.25 143.276 312.812 143.276 312.812 147.651Z" fill="black"/>
<path d="M323.742 147.651C323.742 152.026 317.18 152.026 317.18 147.651C317.18 143.276 323.742 143.276 323.742 147.651Z" fill="black"/>
<path d="M334.682 147.651C334.682 152.026 328.119 152.026 328.119 147.651C328.119 143.276 334.682 143.276 334.682 147.651Z" fill="black"/>
<path d="M345.623 147.651C345.623 152.026 339.061 152.026 339.061 147.651C339.061 143.276 345.623 143.276 345.623 147.651Z" fill="black"/>
<path d="M356.562 147.651C356.562 152.026 350 152.026 350 147.651C350 143.276 356.562 143.276 356.562 147.651Z" fill="black"/>
<path d="M367.492 147.651C367.492 152.026 360.93 152.026 360.93 147.651C360.93 143.276 367.492 143.276 367.492 147.651Z" fill="black"/>
<path d="M378.432 147.651C378.432 152.026 371.869 152.026 371.869 147.651C371.869 143.276 378.432 143.276 378.432 147.651Z" fill="black"/>
<path d="M389.373 147.651C389.373 152.026 382.811 152.026 382.811 147.651C382.811 143.276 389.373 143.276 389.373 147.651Z" fill="black"/>
<path d="M400.312 147.651C400.312 152.026 393.75 152.026 393.75 147.651C393.75 143.276 400.312 143.276 400.312 147.651Z" fill="black"/>
<path d="M411.242 147.651C411.242 152.026 404.68 152.026 404.68 147.651C404.68 143.276 411.242 143.276 411.242 147.651Z" fill="black"/>
<path d="M422.182 147.651C422.182 152.026 415.619 152.026 415.619 147.651C415.619 143.276 422.182 143.276 422.182 147.651Z" fill="black"/>
<path d="M433.123 147.651C433.123 152.026 426.561 152.026 426.561 147.651C426.561 143.276 433.123 143.276 433.123 147.651Z" fill="black"/>
<path d="M444.062 147.651C444.062 152.026 437.5 152.026 437.5 147.651C437.5 143.276 444.062 143.276 444.062 147.651Z" fill="black"/>
<path d="M454.992 147.651C454.992 152.026 448.43 152.026 448.43 147.651C448.43 143.276 454.992 143.276 454.992 147.651Z" fill="black"/>
<path d="M465.932 147.651C465.932 152.026 459.369 152.026 459.369 147.651C459.369 143.276 465.932 143.276 465.932 147.651Z" fill="black"/>
<path d="M476.873 147.651C476.873 152.026 470.311 152.026 470.311 147.651C470.311 143.276 476.873 143.276 476.873 147.651Z" fill="black"/>
<path d="M487.812 147.651C487.812 152.026 481.25 152.026 481.25 147.651C481.25 143.276 487.812 143.276 487.812 147.651Z" fill="black"/>
<path d="M6.5625 159.681C6.5625 164.056 0 164.056 0 159.681C0 155.306 6.5625 155.306 6.5625 159.681Z" fill="black"/>
<path d="M17.4922 159.681C17.4922 164.056 10.9297 164.056 10.9297 159.681C10.9297 155.306 17.4922 155.306 17.4922 159.681Z" fill="black"/>
<path d="M28.4316 159.681C28.4316 164.056 21.8691 164.056 21.8691 159.681C21.8691 155.306 28.4316 155.306 28.4316 159.681Z" fill="black"/>
<path d="M39.373 159.681C39.373 164.056 32.8105 164.056 32.8105 159.681C32.8105 155.306 39.373 155.306 39.373 159.681Z" fill="black"/>
<path d="M50.3125 159.681C50.3125 164.056 43.75 164.056 43.75 159.681C43.75 155.306 50.3125 155.306 50.3125 159.681Z" fill="black"/>
<path d="M61.2422 159.681C61.2422 164.056 54.6797 164.056 54.6797 159.681C54.6797 155.306 61.2422 155.306 61.2422 159.681Z" fill="black"/>
<path d="M72.1816 159.681C72.1816 164.056 65.6191 164.056 65.6191 159.681C65.6191 155.306 72.1816 155.306 72.1816 159.681Z" fill="black"/>
<path d="M83.123 159.681C83.123 164.056 76.5605 164.056 76.5605 159.681C76.5605 155.306 83.123 155.306 83.123 159.681Z" fill="black"/>
<path d="M94.0625 159.681C94.0625 164.056 87.5 164.056 87.5 159.681C87.5 155.306 94.0625 155.306 94.0625 159.681Z" fill="black"/>
<path d="M104.992 159.681C104.992 164.056 98.4297 164.056 98.4297 159.681C98.4297 155.306 104.992 155.306 104.992 159.681Z" fill="black"/>
<path d="M115.932 159.681C115.932 164.056 109.369 164.056 109.369 159.681C109.369 155.306 115.932 155.306 115.932 159.681Z" fill="black"/>
<path d="M126.873 159.681C126.873 164.056 120.311 164.056 120.311 159.681C120.311 155.306 126.873 155.306 126.873 159.681Z" fill="black"/>
<path d="M137.812 159.681C137.812 164.056 131.25 164.056 131.25 159.681C131.25 155.306 137.812 155.306 137.812 159.681Z" fill="black"/>
<path d="M148.742 159.681C148.742 164.056 142.18 164.056 142.18 159.681C142.18 155.306 148.742 155.306 148.742 159.681Z" fill="black"/>
<path d="M159.682 159.681C159.682 164.056 153.119 164.056 153.119 159.681C153.119 155.306 159.682 155.306 159.682 159.681Z" fill="black"/>
<path d="M170.623 159.681C170.623 164.056 164.061 164.056 164.061 159.681C164.061 155.306 170.623 155.306 170.623 159.681Z" fill="black"/>
<path d="M181.562 159.681C181.562 164.056 175 164.056 175 159.681C175 155.306 181.562 155.306 181.562 159.681Z" fill="black"/>
<path d="M192.492 159.681C192.492 164.056 185.93 164.056 185.93 159.681C185.93 155.306 192.492 155.306 192.492 159.681Z" fill="black"/>
<path d="M203.432 159.681C203.432 164.056 196.869 164.056 196.869 159.681C196.869 155.306 203.432 155.306 203.432 159.681Z" fill="black"/>
<path d="M214.373 159.681C214.373 164.056 207.811 164.056 207.811 159.681C207.811 155.306 214.373 155.306 214.373 159.681Z" fill="black"/>
<path d="M225.312 159.681C225.312 164.056 218.75 164.056 218.75 159.681C218.75 155.306 225.312 155.306 225.312 159.681Z" fill="black"/>
<path d="M236.242 159.681C236.242 164.056 229.68 164.056 229.68 159.681C229.68 155.306 236.242 155.306 236.242 159.681Z" fill="black"/>
<path d="M247.182 159.681C247.182 164.056 240.619 164.056 240.619 159.681C240.619 155.306 247.182 155.306 247.182 159.681Z" fill="black"/>
<path d="M258.123 159.681C258.123 164.056 251.561 164.056 251.561 159.681C251.561 155.306 258.123 155.306 258.123 159.681Z" fill="black"/>
<path d="M269.062 159.681C269.062 164.056 262.5 164.056 262.5 159.681C262.5 155.306 269.062 155.306 269.062 159.681Z" fill="black"/>
<path d="M279.992 159.681C279.992 164.056 273.43 164.056 273.43 159.681C273.43 155.306 279.992 155.306 279.992 159.681Z" fill="black"/>
<path d="M290.932 159.681C290.932 164.056 284.369 164.056 284.369 159.681C284.369 155.306 290.932 155.306 290.932 159.681Z" fill="black"/>
<path d="M301.873 159.681C301.873 164.056 295.311 164.056 295.311 159.681C295.311 155.306 301.873 155.306 301.873 159.681Z" fill="black"/>
<path d="M312.812 159.681C312.812 164.056 306.25 164.056 306.25 159.681C306.25 155.306 312.812 155.306 312.812 159.681Z" fill="black"/>
<path d="M323.742 159.681C323.742 164.056 317.18 164.056 317.18 159.681C317.18 155.306 323.742 155.306 323.742 159.681Z" fill="black"/>
<path d="M334.682 159.681C334.682 164.056 328.119 164.056 328.119 159.681C328.119 155.306 334.682 155.306 334.682 159.681Z" fill="black"/>
<path d="M345.623 159.681C345.623 164.056 339.061 164.056 339.061 159.681C339.061 155.306 345.623 155.306 345.623 159.681Z" fill="black"/>
<path d="M356.562 159.681C356.562 164.056 350 164.056 350 159.681C350 155.306 356.562 155.306 356.562 159.681Z" fill="black"/>
<path d="M367.492 159.681C367.492 164.056 360.93 164.056 360.93 159.681C360.93 155.306 367.492 155.306 367.492 159.681Z" fill="black"/>
<path d="M378.432 159.681C378.432 164.056 371.869 164.056 371.869 159.681C371.869 155.306 378.432 155.306 378.432 159.681Z" fill="black"/>
<path d="M389.373 159.681C389.373 164.056 382.811 164.056 382.811 159.681C382.811 155.306 389.373 155.306 389.373 159.681Z" fill="black"/>
<path d="M400.312 159.681C400.312 164.056 393.75 164.056 393.75 159.681C393.75 155.306 400.312 155.306 400.312 159.681Z" fill="black"/>
<path d="M411.242 159.681C411.242 164.056 404.68 164.056 404.68 159.681C404.68 155.306 411.242 155.306 411.242 159.681Z" fill="black"/>
<path d="M422.182 159.681C422.182 164.056 415.619 164.056 415.619 159.681C415.619 155.306 422.182 155.306 422.182 159.681Z" fill="black"/>
<path d="M433.123 159.681C433.123 164.056 426.561 164.056 426.561 159.681C426.561 155.306 433.123 155.306 433.123 159.681Z" fill="black"/>
<path d="M444.062 159.681C444.062 164.056 437.5 164.056 437.5 159.681C437.5 155.306 444.062 155.306 444.062 159.681Z" fill="black"/>
<path d="M454.992 159.681C454.992 164.056 448.43 164.056 448.43 159.681C448.43 155.306 454.992 155.306 454.992 159.681Z" fill="black"/>
<path d="M465.932 159.681C465.932 164.056 459.369 164.056 459.369 159.681C459.369 155.306 465.932 155.306 465.932 159.681Z" fill="black"/>
<path d="M476.873 159.681C476.873 164.056 470.311 164.056 470.311 159.681C470.311 155.306 476.873 155.306 476.873 159.681Z" fill="black"/>
<path d="M487.812 159.681C487.812 164.056 481.25 164.056 481.25 159.681C481.25 155.306 487.812 155.306 487.812 159.681Z" fill="black"/>
<path d="M6.5625 171.711C6.5625 176.086 0 176.086 0 171.711C0 167.336 6.5625 167.336 6.5625 171.711Z" fill="black"/>
<path d="M17.4922 171.711C17.4922 176.086 10.9297 176.086 10.9297 171.711C10.9297 167.336 17.4922 167.336 17.4922 171.711Z" fill="black"/>
<path d="M28.4316 171.711C28.4316 176.086 21.8691 176.086 21.8691 171.711C21.8691 167.336 28.4316 167.336 28.4316 171.711Z" fill="black"/>
<path d="M39.373 171.711C39.373 176.086 32.8105 176.086 32.8105 171.711C32.8105 167.336 39.373 167.336 39.373 171.711Z" fill="black"/>
<path d="M50.3125 171.711C50.3125 176.086 43.75 176.086 43.75 171.711C43.75 167.336 50.3125 167.336 50.3125 171.711Z" fill="black"/>
<path d="M61.2422 171.711C61.2422 176.086 54.6797 176.086 54.6797 171.711C54.6797 167.336 61.2422 167.336 61.2422 171.711Z" fill="black"/>
<path d="M72.1816 171.711C72.1816 176.086 65.6191 176.086 65.6191 171.711C65.6191 167.336 72.1816 167.336 72.1816 171.711Z" fill="black"/>
<path d="M83.123 171.711C83.123 176.086 76.5605 176.086 76.5605 171.711C76.5605 167.336 83.123 167.336 83.123 171.711Z" fill="black"/>
<path d="M94.0625 171.711C94.0625 176.086 87.5 176.086 87.5 171.711C87.5 167.336 94.0625 167.336 94.0625 171.711Z" fill="black"/>
<path d="M104.992 171.711C104.992 176.086 98.4297 176.086 98.4297 171.711C98.4297 167.336 104.992 167.336 104.992 171.711Z" fill="black"/>
<path d="M115.932 171.711C115.932 176.086 109.369 176.086 109.369 171.711C109.369 167.336 115.932 167.336 115.932 171.711Z" fill="black"/>
<path d="M126.873 171.711C126.873 176.086 120.311 176.086 120.311 171.711C120.311 167.336 126.873 167.336 126.873 171.711Z" fill="black"/>
<path d="M137.812 171.711C137.812 176.086 131.25 176.086 131.25 171.711C131.25 167.336 137.812 167.336 137.812 171.711Z" fill="black"/>
<path d="M148.742 171.711C148.742 176.086 142.18 176.086 142.18 171.711C142.18 167.336 148.742 167.336 148.742 171.711Z" fill="black"/>
<path d="M159.682 171.711C159.682 176.086 153.119 176.086 153.119 171.711C153.119 167.336 159.682 167.336 159.682 171.711Z" fill="black"/>
<path d="M170.623 171.711C170.623 176.086 164.061 176.086 164.061 171.711C164.061 167.336 170.623 167.336 170.623 171.711Z" fill="black"/>
<path d="M181.562 171.711C181.562 176.086 175 176.086 175 171.711C175 167.336 181.562 167.336 181.562 171.711Z" fill="black"/>
<path d="M192.492 171.711C192.492 176.086 185.93 176.086 185.93 171.711C185.93 167.336 192.492 167.336 192.492 171.711Z" fill="black"/>
<path d="M203.432 171.711C203.432 176.086 196.869 176.086 196.869 171.711C196.869 167.336 203.432 167.336 203.432 171.711Z" fill="black"/>
<path d="M214.373 171.711C214.373 176.086 207.811 176.086 207.811 171.711C207.811 167.336 214.373 167.336 214.373 171.711Z" fill="black"/>
<path d="M225.312 171.711C225.312 176.086 218.75 176.086 218.75 171.711C218.75 167.336 225.312 167.336 225.312 171.711Z" fill="black"/>
<path d="M236.242 171.711C236.242 176.086 229.68 176.086 229.68 171.711C229.68 167.336 236.242 167.336 236.242 171.711Z" fill="black"/>
<path d="M247.182 171.711C247.182 176.086 240.619 176.086 240.619 171.711C240.619 167.336 247.182 167.336 247.182 171.711Z" fill="black"/>
<path d="M258.123 171.711C258.123 176.086 251.561 176.086 251.561 171.711C251.561 167.336 258.123 167.336 258.123 171.711Z" fill="black"/>
<path d="M269.062 171.711C269.062 176.086 262.5 176.086 262.5 171.711C262.5 167.336 269.062 167.336 269.062 171.711Z" fill="black"/>
<path d="M279.992 171.711C279.992 176.086 273.43 176.086 273.43 171.711C273.43 167.336 279.992 167.336 279.992 171.711Z" fill="black"/>
<path d="M290.932 171.711C290.932 176.086 284.369 176.086 284.369 171.711C284.369 167.336 290.932 167.336 290.932 171.711Z" fill="black"/>
<path d="M301.873 171.711C301.873 176.086 295.311 176.086 295.311 171.711C295.311 167.336 301.873 167.336 301.873 171.711Z" fill="black"/>
<path d="M312.812 171.711C312.812 176.086 306.25 176.086 306.25 171.711C306.25 167.336 312.812 167.336 312.812 171.711Z" fill="black"/>
<path d="M323.742 171.711C323.742 176.086 317.18 176.086 317.18 171.711C317.18 167.336 323.742 167.336 323.742 171.711Z" fill="black"/>
<path d="M334.682 171.711C334.682 176.086 328.119 176.086 328.119 171.711C328.119 167.336 334.682 167.336 334.682 171.711Z" fill="black"/>
<path d="M345.623 171.711C345.623 176.086 339.061 176.086 339.061 171.711C339.061 167.336 345.623 167.336 345.623 171.711Z" fill="black"/>
<path d="M356.562 171.711C356.562 176.086 350 176.086 350 171.711C350 167.336 356.562 167.336 356.562 171.711Z" fill="black"/>
<path d="M367.492 171.711C367.492 176.086 360.93 176.086 360.93 171.711C360.93 167.336 367.492 167.336 367.492 171.711Z" fill="black"/>
<path d="M378.432 171.711C378.432 176.086 371.869 176.086 371.869 171.711C371.869 167.336 378.432 167.336 378.432 171.711Z" fill="black"/>
<path d="M389.373 171.711C389.373 176.086 382.811 176.086 382.811 171.711C382.811 167.336 389.373 167.336 389.373 171.711Z" fill="black"/>
<path d="M400.312 171.711C400.312 176.086 393.75 176.086 393.75 171.711C393.75 167.336 400.312 167.336 400.312 171.711Z" fill="black"/>
<path d="M411.242 171.711C411.242 176.086 404.68 176.086 404.68 171.711C404.68 167.336 411.242 167.336 411.242 171.711Z" fill="black"/>
<path d="M422.182 171.711C422.182 176.086 415.619 176.086 415.619 171.711C415.619 167.336 422.182 167.336 422.182 171.711Z" fill="black"/>
<path d="M433.123 171.711C433.123 176.086 426.561 176.086 426.561 171.711C426.561 167.336 433.123 167.336 433.123 171.711Z" fill="black"/>
<path d="M444.062 171.711C444.062 176.086 437.5 176.086 437.5 171.711C437.5 167.336 444.062 167.336 444.062 171.711Z" fill="black"/>
<path d="M454.992 171.711C454.992 176.086 448.43 176.086 448.43 171.711C448.43 167.336 454.992 167.336 454.992 171.711Z" fill="black"/>
<path d="M465.932 171.711C465.932 176.086 459.369 176.086 459.369 171.711C459.369 167.336 465.932 167.336 465.932 171.711Z" fill="black"/>
<path d="M476.873 171.711C476.873 176.086 470.311 176.086 470.311 171.711C470.311 167.336 476.873 167.336 476.873 171.711Z" fill="black"/>
<path d="M487.812 171.711C487.812 176.086 481.25 176.086 481.25 171.711C481.25 167.336 487.812 167.336 487.812 171.711Z" fill="black"/>
<path d="M6.5625 183.741C6.5625 188.116 0 188.116 0 183.741C0 179.366 6.5625 179.366 6.5625 183.741Z" fill="black"/>
<path d="M17.4922 183.741C17.4922 188.116 10.9297 188.116 10.9297 183.741C10.9297 179.366 17.4922 179.366 17.4922 183.741Z" fill="black"/>
<path d="M28.4316 183.741C28.4316 188.116 21.8691 188.116 21.8691 183.741C21.8691 179.366 28.4316 179.366 28.4316 183.741Z" fill="black"/>
<path d="M39.373 183.741C39.373 188.116 32.8105 188.116 32.8105 183.741C32.8105 179.366 39.373 179.366 39.373 183.741Z" fill="black"/>
<path d="M50.3125 183.741C50.3125 188.116 43.75 188.116 43.75 183.741C43.75 179.366 50.3125 179.366 50.3125 183.741Z" fill="black"/>
<path d="M61.2422 183.741C61.2422 188.116 54.6797 188.116 54.6797 183.741C54.6797 179.366 61.2422 179.366 61.2422 183.741Z" fill="black"/>
<path d="M72.1816 183.741C72.1816 188.116 65.6191 188.116 65.6191 183.741C65.6191 179.366 72.1816 179.366 72.1816 183.741Z" fill="black"/>
<path d="M83.123 183.741C83.123 188.116 76.5605 188.116 76.5605 183.741C76.5605 179.366 83.123 179.366 83.123 183.741Z" fill="black"/>
<path d="M94.0625 183.741C94.0625 188.116 87.5 188.116 87.5 183.741C87.5 179.366 94.0625 179.366 94.0625 183.741Z" fill="black"/>
<path d="M104.992 183.741C104.992 188.116 98.4297 188.116 98.4297 183.741C98.4297 179.366 104.992 179.366 104.992 183.741Z" fill="black"/>
<path d="M115.932 183.741C115.932 188.116 109.369 188.116 109.369 183.741C109.369 179.366 115.932 179.366 115.932 183.741Z" fill="black"/>
<path d="M126.873 183.741C126.873 188.116 120.311 188.116 120.311 183.741C120.311 179.366 126.873 179.366 126.873 183.741Z" fill="black"/>
<path d="M137.812 183.741C137.812 188.116 131.25 188.116 131.25 183.741C131.25 179.366 137.812 179.366 137.812 183.741Z" fill="black"/>
<path d="M148.742 183.741C148.742 188.116 142.18 188.116 142.18 183.741C142.18 179.366 148.742 179.366 148.742 183.741Z" fill="black"/>
<path d="M159.682 183.741C159.682 188.116 153.119 188.116 153.119 183.741C153.119 179.366 159.682 179.366 159.682 183.741Z" fill="black"/>
<path d="M170.623 183.741C170.623 188.116 164.061 188.116 164.061 183.741C164.061 179.366 170.623 179.366 170.623 183.741Z" fill="black"/>
<path d="M181.562 183.741C181.562 188.116 175 188.116 175 183.741C175 179.366 181.562 179.366 181.562 183.741Z" fill="black"/>
<path d="M192.492 183.741C192.492 188.116 185.93 188.116 185.93 183.741C185.93 179.366 192.492 179.366 192.492 183.741Z" fill="black"/>
<path d="M203.432 183.741C203.432 188.116 196.869 188.116 196.869 183.741C196.869 179.366 203.432 179.366 203.432 183.741Z" fill="black"/>
<path d="M214.373 183.741C214.373 188.116 207.811 188.116 207.811 183.741C207.811 179.366 214.373 179.366 214.373 183.741Z" fill="black"/>
<path d="M225.312 183.741C225.312 188.116 218.75 188.116 218.75 183.741C218.75 179.366 225.312 179.366 225.312 183.741Z" fill="black"/>
<path d="M236.242 183.741C236.242 188.116 229.68 188.116 229.68 183.741C229.68 179.366 236.242 179.366 236.242 183.741Z" fill="black"/>
<path d="M247.182 183.741C247.182 188.116 240.619 188.116 240.619 183.741C240.619 179.366 247.182 179.366 247.182 183.741Z" fill="black"/>
<path d="M258.123 183.741C258.123 188.116 251.561 188.116 251.561 183.741C251.561 179.366 258.123 179.366 258.123 183.741Z" fill="black"/>
<path d="M269.062 183.741C269.062 188.116 262.5 188.116 262.5 183.741C262.5 179.366 269.062 179.366 269.062 183.741Z" fill="black"/>
<path d="M279.992 183.741C279.992 188.116 273.43 188.116 273.43 183.741C273.43 179.366 279.992 179.366 279.992 183.741Z" fill="black"/>
<path d="M290.932 183.741C290.932 188.116 284.369 188.116 284.369 183.741C284.369 179.366 290.932 179.366 290.932 183.741Z" fill="black"/>
<path d="M301.873 183.741C301.873 188.116 295.311 188.116 295.311 183.741C295.311 179.366 301.873 179.366 301.873 183.741Z" fill="black"/>
<path d="M312.812 183.741C312.812 188.116 306.25 188.116 306.25 183.741C306.25 179.366 312.812 179.366 312.812 183.741Z" fill="black"/>
<path d="M323.742 183.741C323.742 188.116 317.18 188.116 317.18 183.741C317.18 179.366 323.742 179.366 323.742 183.741Z" fill="black"/>
<path d="M334.682 183.741C334.682 188.116 328.119 188.116 328.119 183.741C328.119 179.366 334.682 179.366 334.682 183.741Z" fill="black"/>
<path d="M345.623 183.741C345.623 188.116 339.061 188.116 339.061 183.741C339.061 179.366 345.623 179.366 345.623 183.741Z" fill="black"/>
<path d="M356.562 183.741C356.562 188.116 350 188.116 350 183.741C350 179.366 356.562 179.366 356.562 183.741Z" fill="black"/>
<path d="M367.492 183.741C367.492 188.116 360.93 188.116 360.93 183.741C360.93 179.366 367.492 179.366 367.492 183.741Z" fill="black"/>
<path d="M378.432 183.741C378.432 188.116 371.869 188.116 371.869 183.741C371.869 179.366 378.432 179.366 378.432 183.741Z" fill="black"/>
<path d="M389.373 183.741C389.373 188.116 382.811 188.116 382.811 183.741C382.811 179.366 389.373 179.366 389.373 183.741Z" fill="black"/>
<path d="M400.312 183.741C400.312 188.116 393.75 188.116 393.75 183.741C393.75 179.366 400.312 179.366 400.312 183.741Z" fill="black"/>
<path d="M411.242 183.741C411.242 188.116 404.68 188.116 404.68 183.741C404.68 179.366 411.242 179.366 411.242 183.741Z" fill="black"/>
<path d="M422.182 183.741C422.182 188.116 415.619 188.116 415.619 183.741C415.619 179.366 422.182 179.366 422.182 183.741Z" fill="black"/>
<path d="M433.123 183.741C433.123 188.116 426.561 188.116 426.561 183.741C426.561 179.366 433.123 179.366 433.123 183.741Z" fill="black"/>
<path d="M444.062 183.741C444.062 188.116 437.5 188.116 437.5 183.741C437.5 179.366 444.062 179.366 444.062 183.741Z" fill="black"/>
<path d="M454.992 183.741C454.992 188.116 448.43 188.116 448.43 183.741C448.43 179.366 454.992 179.366 454.992 183.741Z" fill="black"/>
<path d="M465.932 183.741C465.932 188.116 459.369 188.116 459.369 183.741C459.369 179.366 465.932 179.366 465.932 183.741Z" fill="black"/>
<path d="M476.873 183.741C476.873 188.116 470.311 188.116 470.311 183.741C470.311 179.366 476.873 179.366 476.873 183.741Z" fill="black"/>
<path d="M487.812 183.741C487.812 188.116 481.25 188.116 481.25 183.741C481.25 179.366 487.812 179.366 487.812 183.741Z" fill="black"/>
</g>
</svg>
