<svg width="330" height="89" viewBox="0 0 330 89" fill="none" xmlns="http://www.w3.org/2000/svg">
<path d="M150.342 34.362L150.574 35.3349L150.342 34.362ZM2.01111 77.7096C2.09321 78.2558 2.60251 78.632 3.14865 78.5499L12.0487 77.212C12.5948 77.1299 12.971 76.6206 12.8889 76.0744C12.8068 75.5283 12.2975 75.1521 11.7513 75.2342L3.84023 76.4234L2.651 68.5123C2.5689 67.9662 2.0596 67.59 1.51346 67.6721C0.967307 67.7542 0.591121 68.2635 0.673221 68.8096L2.01111 77.7096ZM329.494 76.6913C311.705 66.5928 281.426 52.3218 248.342 42.2948C215.287 32.2766 179.28 26.4469 150.111 33.3892L150.574 35.3349C179.217 28.5176 214.807 34.2208 247.762 44.2088C280.688 54.188 310.831 68.3964 328.506 78.4306L329.494 76.6913ZM150.111 33.3892C131.98 37.7045 121.487 43.778 116.747 50.5238C114.358 53.9243 113.44 57.4854 113.757 61.0139C114.072 64.5253 115.601 67.9305 117.98 71.0644C122.726 77.3182 130.962 82.6381 140.368 85.8187C149.785 89.003 160.493 90.0841 170.249 87.7313L169.78 85.7871C160.466 88.0335 150.147 87.0144 141.008 83.9241C131.858 80.8299 124.01 75.7006 119.573 69.8552C117.359 66.9395 116.022 63.8827 115.749 60.8353C115.477 57.8048 116.25 54.7101 118.384 51.6736C122.69 45.5452 132.572 39.6194 150.574 35.3349L150.111 33.3892ZM170.249 87.7313C189.728 83.0338 202.886 66.9875 204.584 49.5577C206.29 32.0405 196.418 13.3612 170.371 3.42692L169.658 5.29562C195 14.9609 204.199 32.8814 202.593 49.3638C200.979 65.9335 188.442 81.2864 169.78 85.7871L170.249 87.7313ZM170.371 3.42692C157.246 -1.57883 141.126 -0.730058 124.194 3.58013C107.244 7.89501 89.3612 15.7094 72.6313 24.783C55.897 33.8591 40.2847 44.2122 27.8707 53.6277C15.4848 63.022 6.20116 71.544 2.19564 76.9668L3.80436 78.1551C7.62766 72.979 16.7116 64.6016 29.0793 55.2212C41.419 45.8621 56.9463 35.5652 73.5848 26.5411C90.2278 17.5146 107.951 9.77874 124.687 5.51831C141.442 1.25319 157.089 0.501613 169.658 5.29562L170.371 3.42692Z" fill="black"/>
</svg>
